<?xml version="1.0" encoding="UTF-8" standalone="no"?>
<svg
   width="128"
   height="128"
   viewBox="0 0 128 128"
   fill="none"
   version="1.1"
   id="svg378"
   sodipodi:docname="32.svg"
   inkscape:export-filename="32.png"
   inkscape:export-xdpi="96"
   inkscape:export-ydpi="96"
   inkscape:version="1.2.1 (9c6d41e410, 2022-07-14)"
   xmlns:inkscape="http://www.inkscape.org/namespaces/inkscape"
   xmlns:sodipodi="http://sodipodi.sourceforge.net/DTD/sodipodi-0.dtd"
   xmlns="http://www.w3.org/2000/svg"
   xmlns:svg="http://www.w3.org/2000/svg">
  <sodipodi:namedview
     id="namedview380"
     pagecolor="#ffffff"
     bordercolor="#666666"
     borderopacity="1.0"
     inkscape:showpageshadow="2"
     inkscape:pageopacity="0.0"
     inkscape:pagecheckerboard="0"
     inkscape:deskcolor="#d1d1d1"
     showgrid="false"
     inkscape:zoom="4.0008747"
     inkscape:cx="53.988194"
     inkscape:cy="52.738467"
     inkscape:window-width="1920"
     inkscape:window-height="1011"
     inkscape:window-x="0"
     inkscape:window-y="0"
     inkscape:window-maximized="1"
     inkscape:current-layer="svg378" />
  <path
     style="fill:#00e0fe;fill-opacity:1;stroke-width:0.99999035;stroke-dasharray:none;fill-rule:nonzero"
     d="m 48.3446,40.702 c 2.34,0 4.4547,-0.5286 6.344,-1.586 1.8893,-1.0573 3.3887,-2.5133 4.498,-4.368 1.1093,-1.872 1.664,-3.9953 1.664,-6.37 0,-2.028 -0.3987,-3.8826 -1.196,-5.564 -0.78,-1.6813 -1.9067,-3.0593 -3.38,-4.134 -1.456,-1.092 -3.198,-1.7766 -5.226,-2.054 l 9.256,-8.89197 v -5.174 h -22.516 v 5.174 h 15.86 l -11.44,10.11397 2.548,4.29 c 1.1613,-0.624 2.34,-0.936 3.536,-0.936 2.08,0 3.7613,0.676 5.044,2.028 1.3,1.352 1.95,3.068 1.95,5.148 0,2.0627 -0.6413,3.77 -1.924,5.122 -1.2827,1.3347 -2.9553,2.0194 -5.018,2.054 -1.5253,0.0174 -2.912,-0.3986 -4.16,-1.248 -1.248,-0.8493 -2.1233,-2.0886 -2.626,-3.718 l -5.252,1.456 c 0.5373,1.768 1.3953,3.302 2.574,4.602 1.196,1.3 2.6087,2.3054 4.238,3.016 1.6293,0.6934 3.3713,1.04 5.226,1.04 z"
     transform="matrix(2.1340206,0,0,2.1340206,-73.218405,18.239506)"
     id="path332" />
  <path
     d="m 66.5844,39.974 h 25.324 V 34.8 h -16.926 l 10.842,-9.672 c 1.352,-1.196 2.4787,-2.3053 3.38,-3.328 0.9013,-1.0226 1.5773,-2.132 2.028,-3.328 0.4507,-1.2133 0.676,-2.6693 0.676,-4.368 0,-2.3746 -0.546,-4.4893 -1.638,-6.34397 -1.0747,-1.85467 -2.548,-3.31067 -4.42,-4.368 -1.872,-1.07467 -3.9866,-1.612 -6.344,-1.612 -2.4786,0 -4.6887,0.52 -6.63,1.56 -1.924,1.02266 -3.432,2.45267 -4.524,4.29 -1.092,1.82 -1.638,3.94337 -1.638,6.36997 h 5.564 c -0.0173,-1.2653 0.2773,-2.4266 0.884,-3.484 0.624,-1.07464 1.4734,-1.93264 2.548,-2.57397 1.0747,-0.65867 2.3053,-0.988 3.692,-0.988 2.0107,0 3.666,0.676 4.966,2.028 1.3,1.35197 1.95,3.03337 1.95,5.04397 0,1.0574 -0.2427,2.1147 -0.728,3.172 -0.468,1.04 -1.3607,2.1494 -2.678,3.328 l -16.302,14.612 z"
     fill="#1f2a3c"
     id="path334"
     style="fill:#00e0fe;fill-opacity:1;stroke:none;stroke-width:0.99999035;stroke-dasharray:none;stroke-opacity:1"
     transform="matrix(2.1340206,0,0,2.1340206,-73.218405,18.239506)"
     inkscape:label="path334" />
  <defs
     id="defs376">
    <filter
       id="filter0_ii_1567_653"
       x="0.0400391"
       y="0.780029"
       width="164.668"
       height="40.9221"
       filterUnits="userSpaceOnUse"
       color-interpolation-filters="sRGB">
      <feFlood
         flood-opacity="0"
         result="BackgroundImageFix"
         id="feFlood342" />
      <feBlend
         mode="normal"
         in="SourceGraphic"
         in2="BackgroundImageFix"
         result="shape"
         id="feBlend344" />
      <feColorMatrix
         in="SourceAlpha"
         type="matrix"
         values="0 0 0 0 0 0 0 0 0 0 0 0 0 0 0 0 0 0 127 0"
         result="hardAlpha"
         id="feColorMatrix346" />
      <feOffset
         dx="1"
         dy="1"
         id="feOffset348" />
      <feGaussianBlur
         stdDeviation="0.004735619"
         id="feGaussianBlur350" />
      <feComposite
         in2="hardAlpha"
         operator="arithmetic"
         k2="-1"
         k3="1"
         id="feComposite352"
         k1="0"
         k4="0" />
      <feColorMatrix
         type="matrix"
         values="0 0 0 0 0 0 0 0 0 0 0 0 0 0 0 0 0 0 0.07 0"
         id="feColorMatrix354" />
      <feBlend
         mode="normal"
         in2="shape"
         result="effect1_innerShadow_1567_653"
         id="feBlend356" />
      <feColorMatrix
         in="SourceAlpha"
         type="matrix"
         values="0 0 0 0 0 0 0 0 0 0 0 0 0 0 0 0 0 0 127 0"
         result="hardAlpha"
         id="feColorMatrix358" />
      <feOffset
         dx="-1"
         dy="-1"
         id="feOffset360" />
      <feGaussianBlur
         stdDeviation="1"
         id="feGaussianBlur362" />
      <feComposite
         in2="hardAlpha"
         operator="arithmetic"
         k2="-1"
         k3="1"
         id="feComposite364"
         k1="0"
         k4="0" />
      <feColorMatrix
         type="matrix"
         values="0 0 0 0 0 0 0 0 0 0 0 0 0 0 0 0 0 0 0.07 0"
         id="feColorMatrix366" />
      <feBlend
         mode="normal"
         in2="effect1_innerShadow_1567_653"
         result="effect2_innerShadow_1567_653"
         id="feBlend368" />
    </filter>
    <linearGradient
       id="paint0_linear_1567_653"
       x1="130.666"
       y1="19.9436"
       x2="107.412"
       y2="-5.8621402"
       gradientUnits="userSpaceOnUse">
      <stop
         stop-color="#00E0FE"
         id="stop371" />
      <stop
         offset="1"
         stop-color="#02CCFF"
         id="stop373" />
    </linearGradient>
    <filter
       id="filter5703"
       x="0.0400391"
       y="0.780029"
       width="164.668"
       height="40.9221"
       filterUnits="userSpaceOnUse"
       color-interpolation-filters="sRGB">
      <feFlood
         flood-opacity="0"
         result="BackgroundImageFix"
         id="feFlood5675" />
      <feBlend
         mode="normal"
         in="SourceGraphic"
         in2="BackgroundImageFix"
         result="shape"
         id="feBlend5677" />
      <feColorMatrix
         in="SourceAlpha"
         type="matrix"
         values="0 0 0 0 0 0 0 0 0 0 0 0 0 0 0 0 0 0 127 0"
         result="hardAlpha"
         id="feColorMatrix5679" />
      <feOffset
         dx="1"
         dy="1"
         id="feOffset5681" />
      <feGaussianBlur
         stdDeviation="0.0002873238"
         id="feGaussianBlur5683" />
      <feComposite
         in2="hardAlpha"
         operator="arithmetic"
         k2="-1"
         k3="1"
         id="feComposite5685"
         k1="0"
         k4="0" />
      <feColorMatrix
         type="matrix"
         values="0 0 0 0 0 0 0 0 0 0 0 0 0 0 0 0 0 0 0.07 0"
         id="feColorMatrix5687" />
      <feBlend
         mode="normal"
         in2="shape"
         result="effect1_innerShadow_1567_653"
         id="feBlend5689" />
      <feColorMatrix
         in="SourceAlpha"
         type="matrix"
         values="0 0 0 0 0 0 0 0 0 0 0 0 0 0 0 0 0 0 127 0"
         result="hardAlpha"
         id="feColorMatrix5691" />
      <feOffset
         dx="-1"
         dy="-1"
         id="feOffset5693" />
      <feGaussianBlur
         stdDeviation="1"
         id="feGaussianBlur5695" />
      <feComposite
         in2="hardAlpha"
         operator="arithmetic"
         k2="-1"
         k3="1"
         id="feComposite5697"
         k1="0"
         k4="0" />
      <feColorMatrix
         type="matrix"
         values="0 0 0 0 0 0 0 0 0 0 0 0 0 0 0 0 0 0 0.07 0"
         id="feColorMatrix5699" />
      <feBlend
         mode="normal"
         in2="effect1_innerShadow_1567_653"
         result="effect2_innerShadow_1567_653"
         id="feBlend5701" />
    </filter>
  </defs>
</svg>
