<?xml version="1.0" encoding="UTF-8" standalone="no"?>
<svg
   width="128"
   height="128"
   viewBox="0 0 128 128"
   fill="none"
   version="1.1"
   id="svg378"
   sodipodi:docname="38.svg"
   inkscape:export-filename="32.png"
   inkscape:export-xdpi="96"
   inkscape:export-ydpi="96"
   inkscape:version="1.2.1 (9c6d41e410, 2022-07-14)"
   xmlns:inkscape="http://www.inkscape.org/namespaces/inkscape"
   xmlns:sodipodi="http://sodipodi.sourceforge.net/DTD/sodipodi-0.dtd"
   xmlns="http://www.w3.org/2000/svg"
   xmlns:svg="http://www.w3.org/2000/svg">
  <sodipodi:namedview
     id="namedview380"
     pagecolor="#ffffff"
     bordercolor="#666666"
     borderopacity="1.0"
     inkscape:showpageshadow="2"
     inkscape:pageopacity="0.0"
     inkscape:pagecheckerboard="0"
     inkscape:deskcolor="#d1d1d1"
     showgrid="false"
     inkscape:zoom="4.0008747"
     inkscape:cx="53.988194"
     inkscape:cy="52.738467"
     inkscape:window-width="1920"
     inkscape:window-height="1011"
     inkscape:window-x="0"
     inkscape:window-y="0"
     inkscape:window-maximized="1"
     inkscape:current-layer="svg378" />
  <defs
     id="defs376">
    <filter
       id="filter0_ii_1567_653"
       x="0.0400391"
       y="0.780029"
       width="164.668"
       height="40.9221"
       filterUnits="userSpaceOnUse"
       color-interpolation-filters="sRGB">
      <feFlood
         flood-opacity="0"
         result="BackgroundImageFix"
         id="feFlood342" />
      <feBlend
         mode="normal"
         in="SourceGraphic"
         in2="BackgroundImageFix"
         result="shape"
         id="feBlend344" />
      <feColorMatrix
         in="SourceAlpha"
         type="matrix"
         values="0 0 0 0 0 0 0 0 0 0 0 0 0 0 0 0 0 0 127 0"
         result="hardAlpha"
         id="feColorMatrix346" />
      <feOffset
         dx="1"
         dy="1"
         id="feOffset348" />
      <feGaussianBlur
         stdDeviation="1"
         id="feGaussianBlur350" />
      <feComposite
         in2="hardAlpha"
         operator="arithmetic"
         k2="-1"
         k3="1"
         id="feComposite352"
         k1="0"
         k4="0" />
      <feColorMatrix
         type="matrix"
         values="0 0 0 0 0 0 0 0 0 0 0 0 0 0 0 0 0 0 0.07 0"
         id="feColorMatrix354" />
      <feBlend
         mode="normal"
         in2="shape"
         result="effect1_innerShadow_1567_653"
         id="feBlend356" />
      <feColorMatrix
         in="SourceAlpha"
         type="matrix"
         values="0 0 0 0 0 0 0 0 0 0 0 0 0 0 0 0 0 0 127 0"
         result="hardAlpha"
         id="feColorMatrix358" />
      <feOffset
         dx="-1"
         dy="-1"
         id="feOffset360" />
      <feGaussianBlur
         stdDeviation="1"
         id="feGaussianBlur362" />
      <feComposite
         in2="hardAlpha"
         operator="arithmetic"
         k2="-1"
         k3="1"
         id="feComposite364"
         k1="0"
         k4="0" />
      <feColorMatrix
         type="matrix"
         values="0 0 0 0 0 0 0 0 0 0 0 0 0 0 0 0 0 0 0.07 0"
         id="feColorMatrix366" />
      <feBlend
         mode="normal"
         in2="effect1_innerShadow_1567_653"
         result="effect2_innerShadow_1567_653"
         id="feBlend368" />
    </filter>
    <linearGradient
       id="paint0_linear_1567_653"
       x1="130.666"
       y1="19.9436"
       x2="107.412"
       y2="-5.8621402"
       gradientUnits="userSpaceOnUse">
      <stop
         stop-color="#00E0FE"
         id="stop371" />
      <stop
         offset="1"
         stop-color="#02CCFF"
         id="stop373" />
    </linearGradient>
  </defs>
  <path
     d="M 55.760297,34.669628 V 23.540545 H 7.3292149 V 34.669628 H 41.443487 l -24.607015,21.75484 5.480653,9.227631 c 2.292927,-1.23035 5.033254,-2.013301 7.605805,-2.013301 8.948006,0 15.043835,6.487304 15.043835,15.43531 0,8.892081 -6.095829,15.32346 -14.931984,15.43531 -6.599155,0.05592 -12.471284,-3.691052 -14.596436,-10.681682 L 4.1414878,86.959538 C 7.552915,98.424167 18.066823,105.58257 30.034781,105.58257 c 15.043833,0 26.899942,-11.129077 26.899942,-26.508462 0,-13.086459 -8.053206,-23.54444 -21.083739,-25.278116 z m 58.639133,26.228843 c 5.20102,-4.194378 7.71765,-9.898732 7.71765,-16.609736 0,-13.757559 -10.29021,-22.425941 -24.830717,-22.425941 -14.540513,0 -24.886647,8.668382 -24.886647,22.425941 0,6.65508 2.740327,12.415358 7.717657,16.609736 -6.487306,4.641778 -9.730959,11.800183 -9.730959,19.797463 0,14.820135 11.129086,25.054416 26.899949,25.054416 15.714937,0 26.955867,-10.234281 26.955867,-25.054416 0,-7.99728 -3.3555,-15.267536 -9.8428,-19.797463 z M 97.286363,32.991877 c 7.382097,0 12.415357,3.746978 12.415357,11.296858 0,7.493955 -5.03326,11.185007 -12.415357,11.185007 -7.382109,0 -12.471287,-3.691052 -12.471287,-11.185007 0,-7.54988 5.089178,-11.296858 12.471287,-11.296858 z m 0,61.629392 c -8.668384,0 -14.540513,-4.809554 -14.540513,-13.925335 0,-9.115781 5.816204,-14.037184 14.540513,-14.037184 8.724307,0 14.540507,4.921403 14.540507,14.037184 0,9.115781 -5.92806,13.925335 -14.540507,13.925335 z"
     fill="#171f2c"
     id="path4886"
     sodipodi:nodetypes="cccccccsscccsscccssscssscssssssssss"
     style="stroke-width:2.15097;fill:#00e0fe;fill-opacity:1" />
</svg>
