<?xml version="1.0" encoding="UTF-8"?><svg xmlns="http://www.w3.org/2000/svg" viewBox="0 0 777 814"><defs><style>.cls-1,.cls-2,.cls-3,.cls-4,.cls-5,.cls-6,.cls-7{fill:none;stroke-miterlimit:10;}.cls-1,.cls-3,.cls-4{stroke:#fff;}.cls-2{stroke:#69bd45;}.cls-3{stroke-width:2px;}.cls-4,.cls-5,.cls-6,.cls-7{stroke-width:.5px;}.cls-5{stroke:#ccc;}.cls-6{stroke:#d2d3d4;}.cls-7{stroke:#d1d3d4;}</style></defs><g id="GALLEY___LAVATORY___WALLS"><line id="Cockpit_Door" class="cls-6" x1="381.19" y1="88.5" x2="395.33" y2="88.5"/><g id="Walls"><line id="Aft_Wall" class="cls-4" x1="358.14" y1="683.19" x2="418.22" y2="683.19"/><polyline id="Fwd_Right_Wall" class="cls-4" points="430.28 121.17 395.33 121.17 395.33 119.36 430.28 119.36"/><polyline id="Fwd_Left_Wall" class="cls-4" points="346.2 119.36 381.32 119.36 381.32 121.17 346.2 121.17"/></g><g id="Lavatories"><polyline id="Aft_Left_Lavatory" class="cls-6" points="346.95 612.56 381.32 612.56 381.32 634.33 366.56 634.33 366.56 631.22 349.13 631.22"/><polyline id="Aft_Right_Lavatory" class="cls-6" points="427.27 631.22 409.84 631.22 409.84 634.33 395.09 634.33 395.09 612.56 429.53 612.56"/><polyline id="Fwd_Lavatory" class="cls-6" points="349.72 79.78 381.32 79.78 381.32 103.22 361.83 103.22 361.83 99.94 346.98 99.94"/></g><g id="Galleys"><polyline id="Aft_Galley" class="cls-4" points="353.04 655.97 365.33 655.97 365.33 659.33 413.36 659.33 413.36 655.97 423.44 655.97"/><polyline id="Fwd_Galley" class="cls-6" points="429.46 99.5 395.33 99.5 395.33 81.06 427 81.06"/></g></g><g id="SEATS"><g id="Row_29"><g id="D-F"><path id="F" class="cls-4" d="M416.58,597.05h6.65c.7,0,1.27,.57,1.27,1.27v11h-9.19v-11c0-.7,.57-1.27,1.27-1.27Z"/><path id="E" class="cls-4" d="M406.47,597.05h6.65c.7,0,1.27,.57,1.27,1.27v11h-9.19v-11c0-.7,.57-1.27,1.27-1.27Z"/><path id="D" class="cls-4" d="M396.37,597.05h6.65c.7,0,1.27,.57,1.27,1.27v11h-9.19v-11c0-.7,.57-1.27,1.27-1.27Z"/></g><g id="A-C"><path id="C" class="cls-4" d="M373.4,597.05h6.65c.7,0,1.27,.57,1.27,1.27v11h-9.19v-11c0-.7,.57-1.27,1.27-1.27Z"/><path id="B" class="cls-4" d="M363.3,597.05h6.65c.7,0,1.27,.57,1.27,1.27v11h-9.19v-11c0-.7,.57-1.27,1.27-1.27Z"/><path id="A" class="cls-4" d="M353.19,597.05h6.65c.7,0,1.27,.57,1.27,1.27v11h-9.19v-11c0-.7,.57-1.27,1.27-1.27Z"/></g></g><g id="Row_28"><g id="D-F-2"><path id="F-2" class="cls-4" d="M416.58,580.82h6.65c.7,0,1.27,.57,1.27,1.27v11h-9.19v-11c0-.7,.57-1.27,1.27-1.27Z"/><path id="E-2" class="cls-4" d="M406.47,580.82h6.65c.7,0,1.27,.57,1.27,1.27v11h-9.19v-11c0-.7,.57-1.27,1.27-1.27Z"/><path id="D-2" class="cls-4" d="M396.37,580.82h6.65c.7,0,1.27,.57,1.27,1.27v11h-9.19v-11c0-.7,.57-1.27,1.27-1.27Z"/></g><g id="A-C-2"><path id="C-2" class="cls-4" d="M373.4,580.82h6.65c.7,0,1.27,.57,1.27,1.27v11h-9.19v-11c0-.7,.57-1.27,1.27-1.27Z"/><path id="B-2" class="cls-4" d="M363.3,580.82h6.65c.7,0,1.27,.57,1.27,1.27v11h-9.19v-11c0-.7,.57-1.27,1.27-1.27Z"/><path id="A-2" class="cls-4" d="M353.19,580.82h6.65c.7,0,1.27,.57,1.27,1.27v11h-9.19v-11c0-.7,.57-1.27,1.27-1.27Z"/></g></g><g id="Row_27"><g id="D-F-3"><path id="F-3" class="cls-4" d="M416.58,564.58h6.65c.7,0,1.27,.57,1.27,1.27v11h-9.19v-11c0-.7,.57-1.27,1.27-1.27Z"/><path id="E-3" class="cls-4" d="M406.47,564.58h6.65c.7,0,1.27,.57,1.27,1.27v11h-9.19v-11c0-.7,.57-1.27,1.27-1.27Z"/><path id="D-3" class="cls-4" d="M396.37,564.58h6.65c.7,0,1.27,.57,1.27,1.27v11h-9.19v-11c0-.7,.57-1.27,1.27-1.27Z"/></g><g id="A-C-3"><path id="C-3" class="cls-4" d="M373.4,564.58h6.65c.7,0,1.27,.57,1.27,1.27v11h-9.19v-11c0-.7,.57-1.27,1.27-1.27Z"/><path id="B-3" class="cls-4" d="M363.3,564.58h6.65c.7,0,1.27,.57,1.27,1.27v11h-9.19v-11c0-.7,.57-1.27,1.27-1.27Z"/><path id="A-3" class="cls-4" d="M353.19,564.58h6.65c.7,0,1.27,.57,1.27,1.27v11h-9.19v-11c0-.7,.57-1.27,1.27-1.27Z"/></g></g><g id="Row_26"><g id="D-F-4"><path id="F-4" class="cls-4" d="M416.58,548.34h6.65c.7,0,1.27,.57,1.27,1.27v11h-9.19v-11c0-.7,.57-1.27,1.27-1.27Z"/><path id="E-4" class="cls-4" d="M406.47,548.34h6.65c.7,0,1.27,.57,1.27,1.27v11h-9.19v-11c0-.7,.57-1.27,1.27-1.27Z"/><path id="D-4" class="cls-4" d="M396.37,548.34h6.65c.7,0,1.27,.57,1.27,1.27v11h-9.19v-11c0-.7,.57-1.27,1.27-1.27Z"/></g><g id="A-C-4"><path id="C-4" class="cls-4" d="M373.4,548.34h6.65c.7,0,1.27,.57,1.27,1.27v11h-9.19v-11c0-.7,.57-1.27,1.27-1.27Z"/><path id="B-4" class="cls-4" d="M363.3,548.34h6.65c.7,0,1.27,.57,1.27,1.27v11h-9.19v-11c0-.7,.57-1.27,1.27-1.27Z"/><path id="A-4" class="cls-4" d="M353.19,548.34h6.65c.7,0,1.27,.57,1.27,1.27v11h-9.19v-11c0-.7,.57-1.27,1.27-1.27Z"/></g></g><g id="Row_25"><g id="D-F-5"><path id="F-5" class="cls-4" d="M416.58,532.11h6.65c.7,0,1.27,.57,1.27,1.27v11h-9.19v-11c0-.7,.57-1.27,1.27-1.27Z"/><path id="E-5" class="cls-4" d="M406.47,532.11h6.65c.7,0,1.27,.57,1.27,1.27v11h-9.19v-11c0-.7,.57-1.27,1.27-1.27Z"/><path id="D-5" class="cls-4" d="M396.37,532.11h6.65c.7,0,1.27,.57,1.27,1.27v11h-9.19v-11c0-.7,.57-1.27,1.27-1.27Z"/></g><g id="A-C-5"><path id="C-5" class="cls-4" d="M373.4,532.11h6.65c.7,0,1.27,.57,1.27,1.27v11h-9.19v-11c0-.7,.57-1.27,1.27-1.27Z"/><path id="B-5" class="cls-4" d="M363.3,532.11h6.65c.7,0,1.27,.57,1.27,1.27v11h-9.19v-11c0-.7,.57-1.27,1.27-1.27Z"/><path id="A-5" class="cls-4" d="M353.19,532.11h6.65c.7,0,1.27,.57,1.27,1.27v11h-9.19v-11c0-.7,.57-1.27,1.27-1.27Z"/></g></g><g id="Row_24"><g id="D-F-6"><path id="F-6" class="cls-4" d="M416.58,515.87h6.65c.7,0,1.27,.57,1.27,1.27v11h-9.19v-11c0-.7,.57-1.27,1.27-1.27Z"/><path id="E-6" class="cls-4" d="M406.47,515.87h6.65c.7,0,1.27,.57,1.27,1.27v11h-9.19v-11c0-.7,.57-1.27,1.27-1.27Z"/><path id="D-6" class="cls-4" d="M396.37,515.87h6.65c.7,0,1.27,.57,1.27,1.27v11h-9.19v-11c0-.7,.57-1.27,1.27-1.27Z"/></g><g id="A-C-6"><path id="C-6" class="cls-4" d="M373.4,515.87h6.65c.7,0,1.27,.57,1.27,1.27v11h-9.19v-11c0-.7,.57-1.27,1.27-1.27Z"/><path id="B-6" class="cls-4" d="M363.3,515.87h6.65c.7,0,1.27,.57,1.27,1.27v11h-9.19v-11c0-.7,.57-1.27,1.27-1.27Z"/><path id="A-6" class="cls-4" d="M353.19,515.87h6.65c.7,0,1.27,.57,1.27,1.27v11h-9.19v-11c0-.7,.57-1.27,1.27-1.27Z"/></g></g><g id="Row_23"><g id="D-F-7"><path id="F-7" class="cls-4" d="M416.58,499.63h6.65c.7,0,1.27,.57,1.27,1.27v11h-9.19v-11c0-.7,.57-1.27,1.27-1.27Z"/><path id="E-7" class="cls-4" d="M406.47,499.63h6.65c.7,0,1.27,.57,1.27,1.27v11h-9.19v-11c0-.7,.57-1.27,1.27-1.27Z"/><path id="D-7" class="cls-4" d="M396.37,499.63h6.65c.7,0,1.27,.57,1.27,1.27v11h-9.19v-11c0-.7,.57-1.27,1.27-1.27Z"/></g><g id="A-C-7"><path id="C-7" class="cls-4" d="M373.4,499.63h6.65c.7,0,1.27,.57,1.27,1.27v11h-9.19v-11c0-.7,.57-1.27,1.27-1.27Z"/><path id="B-7" class="cls-4" d="M363.3,499.63h6.65c.7,0,1.27,.57,1.27,1.27v11h-9.19v-11c0-.7,.57-1.27,1.27-1.27Z"/><path id="A-7" class="cls-4" d="M353.19,499.63h6.65c.7,0,1.27,.57,1.27,1.27v11h-9.19v-11c0-.7,.57-1.27,1.27-1.27Z"/></g></g><g id="Row_22"><g id="D-F-8"><path id="F-8" class="cls-4" d="M416.58,483.4h6.65c.7,0,1.27,.57,1.27,1.27v11h-9.19v-11c0-.7,.57-1.27,1.27-1.27Z"/><path id="E-8" class="cls-4" d="M406.47,483.4h6.65c.7,0,1.27,.57,1.27,1.27v11h-9.19v-11c0-.7,.57-1.27,1.27-1.27Z"/><path id="D-8" class="cls-4" d="M396.37,483.4h6.65c.7,0,1.27,.57,1.27,1.27v11h-9.19v-11c0-.7,.57-1.27,1.27-1.27Z"/></g><g id="A-C-8"><path id="C-8" class="cls-4" d="M373.4,483.4h6.65c.7,0,1.27,.57,1.27,1.27v11h-9.19v-11c0-.7,.57-1.27,1.27-1.27Z"/><path id="B-8" class="cls-4" d="M363.3,483.4h6.65c.7,0,1.27,.57,1.27,1.27v11h-9.19v-11c0-.7,.57-1.27,1.27-1.27Z"/><path id="A-8" class="cls-4" d="M353.19,483.4h6.65c.7,0,1.27,.57,1.27,1.27v11h-9.19v-11c0-.7,.57-1.27,1.27-1.27Z"/></g></g><g id="Row_21"><g id="D-F-9"><path id="F-9" class="cls-4" d="M416.58,467.16h6.65c.7,0,1.27,.57,1.27,1.27v11h-9.19v-11c0-.7,.57-1.27,1.27-1.27Z"/><path id="E-9" class="cls-4" d="M406.47,467.16h6.65c.7,0,1.27,.57,1.27,1.27v11h-9.19v-11c0-.7,.57-1.27,1.27-1.27Z"/><path id="D-9" class="cls-4" d="M396.37,467.16h6.65c.7,0,1.27,.57,1.27,1.27v11h-9.19v-11c0-.7,.57-1.27,1.27-1.27Z"/></g><g id="A-C-9"><path id="C-9" class="cls-4" d="M373.4,467.16h6.65c.7,0,1.27,.57,1.27,1.27v11h-9.19v-11c0-.7,.57-1.27,1.27-1.27Z"/><path id="B-9" class="cls-4" d="M363.3,467.16h6.65c.7,0,1.27,.57,1.27,1.27v11h-9.19v-11c0-.7,.57-1.27,1.27-1.27Z"/><path id="A-9" class="cls-4" d="M353.19,467.16h6.65c.7,0,1.27,.57,1.27,1.27v11h-9.19v-11c0-.7,.57-1.27,1.27-1.27Z"/></g></g><g id="Row_20"><g id="D-F-10"><path id="F-10" class="cls-4" d="M416.58,450.93h6.65c.7,0,1.27,.57,1.27,1.27v11h-9.19v-11c0-.7,.57-1.27,1.27-1.27Z"/><path id="E-10" class="cls-4" d="M406.47,450.93h6.65c.7,0,1.27,.57,1.27,1.27v11h-9.19v-11c0-.7,.57-1.27,1.27-1.27Z"/><path id="D-10" class="cls-4" d="M396.37,450.93h6.65c.7,0,1.27,.57,1.27,1.27v11h-9.19v-11c0-.7,.57-1.27,1.27-1.27Z"/></g><g id="A-C-10"><path id="C-10" class="cls-4" d="M373.4,450.93h6.65c.7,0,1.27,.57,1.27,1.27v11h-9.19v-11c0-.7,.57-1.27,1.27-1.27Z"/><path id="B-10" class="cls-4" d="M363.3,450.93h6.65c.7,0,1.27,.57,1.27,1.27v11h-9.19v-11c0-.7,.57-1.27,1.27-1.27Z"/><path id="A-10" class="cls-4" d="M353.19,450.93h6.65c.7,0,1.27,.57,1.27,1.27v11h-9.19v-11c0-.7,.57-1.27,1.27-1.27Z"/></g></g><g id="Row_19"><g id="D-F-11"><path id="F-11" class="cls-4" d="M416.58,434.69h6.65c.7,0,1.27,.57,1.27,1.27v11h-9.19v-11c0-.7,.57-1.27,1.27-1.27Z"/><path id="E-11" class="cls-4" d="M406.47,434.69h6.65c.7,0,1.27,.57,1.27,1.27v11h-9.19v-11c0-.7,.57-1.27,1.27-1.27Z"/><path id="D-11" class="cls-4" d="M396.37,434.69h6.65c.7,0,1.27,.57,1.27,1.27v11h-9.19v-11c0-.7,.57-1.27,1.27-1.27Z"/></g><g id="A-C-11"><path id="C-11" class="cls-4" d="M373.4,434.69h6.65c.7,0,1.27,.57,1.27,1.27v11h-9.19v-11c0-.7,.57-1.27,1.27-1.27Z"/><path id="B-11" class="cls-4" d="M363.3,434.69h6.65c.7,0,1.27,.57,1.27,1.27v11h-9.19v-11c0-.7,.57-1.27,1.27-1.27Z"/><path id="A-11" class="cls-4" d="M353.19,434.69h6.65c.7,0,1.27,.57,1.27,1.27v11h-9.19v-11c0-.7,.57-1.27,1.27-1.27Z"/></g></g><g id="Row_18"><g id="D-F-12"><path id="F-12" class="cls-4" d="M416.58,418.45h6.65c.7,0,1.27,.57,1.27,1.27v11h-9.19v-11c0-.7,.57-1.27,1.27-1.27Z"/><path id="E-12" class="cls-4" d="M406.47,418.45h6.65c.7,0,1.27,.57,1.27,1.27v11h-9.19v-11c0-.7,.57-1.27,1.27-1.27Z"/><path id="D-12" class="cls-4" d="M396.37,418.45h6.65c.7,0,1.27,.57,1.27,1.27v11h-9.19v-11c0-.7,.57-1.27,1.27-1.27Z"/></g><g id="A-C-12"><path id="C-12" class="cls-4" d="M373.4,418.45h6.65c.7,0,1.27,.57,1.27,1.27v11h-9.19v-11c0-.7,.57-1.27,1.27-1.27Z"/><path id="B-12" class="cls-4" d="M363.3,418.45h6.65c.7,0,1.27,.57,1.27,1.27v11h-9.19v-11c0-.7,.57-1.27,1.27-1.27Z"/><path id="A-12" class="cls-4" d="M353.19,418.45h6.65c.7,0,1.27,.57,1.27,1.27v11h-9.19v-11c0-.7,.57-1.27,1.27-1.27Z"/></g></g><g id="Row_17"><g id="D-F-13"><path id="F-13" class="cls-4" d="M416.58,402.22h6.65c.7,0,1.27,.57,1.27,1.27v11h-9.19v-11c0-.7,.57-1.27,1.27-1.27Z"/><path id="E-13" class="cls-4" d="M406.47,402.22h6.65c.7,0,1.27,.57,1.27,1.27v11h-9.19v-11c0-.7,.57-1.27,1.27-1.27Z"/><path id="D-13" class="cls-4" d="M396.37,402.22h6.65c.7,0,1.27,.57,1.27,1.27v11h-9.19v-11c0-.7,.57-1.27,1.27-1.27Z"/></g><g id="A-C-13"><path id="C-13" class="cls-4" d="M373.4,402.22h6.65c.7,0,1.27,.57,1.27,1.27v11h-9.19v-11c0-.7,.57-1.27,1.27-1.27Z"/><path id="B-13" class="cls-4" d="M363.3,402.22h6.65c.7,0,1.27,.57,1.27,1.27v11h-9.19v-11c0-.7,.57-1.27,1.27-1.27Z"/><path id="A-13" class="cls-4" d="M353.19,402.22h6.65c.7,0,1.27,.57,1.27,1.27v11h-9.19v-11c0-.7,.57-1.27,1.27-1.27Z"/></g></g><g id="Row_16"><g id="D-F-14"><path id="F-14" class="cls-4" d="M416.58,385.98h6.65c.7,0,1.27,.57,1.27,1.27v11h-9.19v-11c0-.7,.57-1.27,1.27-1.27Z"/><path id="E-14" class="cls-4" d="M406.47,385.98h6.65c.7,0,1.27,.57,1.27,1.27v11h-9.19v-11c0-.7,.57-1.27,1.27-1.27Z"/><path id="D-14" class="cls-4" d="M396.37,385.98h6.65c.7,0,1.27,.57,1.27,1.27v11h-9.19v-11c0-.7,.57-1.27,1.27-1.27Z"/></g><g id="A-C-14"><path id="C-14" class="cls-4" d="M373.4,385.98h6.65c.7,0,1.27,.57,1.27,1.27v11h-9.19v-11c0-.7,.57-1.27,1.27-1.27Z"/><path id="B-14" class="cls-4" d="M363.3,385.98h6.65c.7,0,1.27,.57,1.27,1.27v11h-9.19v-11c0-.7,.57-1.27,1.27-1.27Z"/><path id="A-14" class="cls-4" d="M353.19,385.98h6.65c.7,0,1.27,.57,1.27,1.27v11h-9.19v-11c0-.7,.57-1.27,1.27-1.27Z"/></g></g><g id="Row_15"><g id="D-F-15"><path id="F-15" class="cls-4" d="M416.58,369.74h6.65c.7,0,1.27,.57,1.27,1.27v11h-9.19v-11c0-.7,.57-1.27,1.27-1.27Z"/><path id="E-15" class="cls-4" d="M406.47,369.74h6.65c.7,0,1.27,.57,1.27,1.27v11h-9.19v-11c0-.7,.57-1.27,1.27-1.27Z"/><path id="D-15" class="cls-4" d="M396.37,369.74h6.65c.7,0,1.27,.57,1.27,1.27v11h-9.19v-11c0-.7,.57-1.27,1.27-1.27Z"/></g><g id="A-C-15"><path id="C-15" class="cls-4" d="M373.4,369.74h6.65c.7,0,1.27,.57,1.27,1.27v11h-9.19v-11c0-.7,.57-1.27,1.27-1.27Z"/><path id="B-15" class="cls-4" d="M363.3,369.74h6.65c.7,0,1.27,.57,1.27,1.27v11h-9.19v-11c0-.7,.57-1.27,1.27-1.27Z"/><path id="A-15" class="cls-4" d="M353.19,369.74h6.65c.7,0,1.27,.57,1.27,1.27v11h-9.19v-11c0-.7,.57-1.27,1.27-1.27Z"/></g></g><g id="Row_14"><g id="D-F-16"><path id="F-16" class="cls-4" d="M416.58,353.51h6.65c.7,0,1.27,.57,1.27,1.27v11h-9.19v-11c0-.7,.57-1.27,1.27-1.27Z"/><path id="E-16" class="cls-4" d="M406.47,353.51h6.65c.7,0,1.27,.57,1.27,1.27v11h-9.19v-11c0-.7,.57-1.27,1.27-1.27Z"/><path id="D-16" class="cls-4" d="M396.37,353.51h6.65c.7,0,1.27,.57,1.27,1.27v11h-9.19v-11c0-.7,.57-1.27,1.27-1.27Z"/></g><g id="A-C-16"><path id="C-16" class="cls-4" d="M373.4,353.51h6.65c.7,0,1.27,.57,1.27,1.27v11h-9.19v-11c0-.7,.57-1.27,1.27-1.27Z"/><path id="B-16" class="cls-4" d="M363.3,353.51h6.65c.7,0,1.27,.57,1.27,1.27v11h-9.19v-11c0-.7,.57-1.27,1.27-1.27Z"/><path id="A-16" class="cls-4" d="M353.19,353.51h6.65c.7,0,1.27,.57,1.27,1.27v11h-9.19v-11c0-.7,.57-1.27,1.27-1.27Z"/></g></g><g id="Row_13"><g id="D-F-17"><path id="F-17" class="cls-4" d="M416.58,337.27h6.65c.7,0,1.27,.57,1.27,1.27v11h-9.19v-11c0-.7,.57-1.27,1.27-1.27Z"/><path id="E-17" class="cls-4" d="M406.47,337.27h6.65c.7,0,1.27,.57,1.27,1.27v11h-9.19v-11c0-.7,.57-1.27,1.27-1.27Z"/><path id="D-17" class="cls-4" d="M396.37,337.27h6.65c.7,0,1.27,.57,1.27,1.27v11h-9.19v-11c0-.7,.57-1.27,1.27-1.27Z"/></g><g id="A-C-17"><path id="C-17" class="cls-4" d="M373.4,337.27h6.65c.7,0,1.27,.57,1.27,1.27v11h-9.19v-11c0-.7,.57-1.27,1.27-1.27Z"/><path id="B-17" class="cls-4" d="M363.3,337.27h6.65c.7,0,1.27,.57,1.27,1.27v11h-9.19v-11c0-.7,.57-1.27,1.27-1.27Z"/><path id="A-17" class="cls-4" d="M353.19,337.27h6.65c.7,0,1.27,.57,1.27,1.27v11h-9.19v-11c0-.7,.57-1.27,1.27-1.27Z"/></g></g><g id="Row_12"><g id="D-F-18"><path id="F-18" class="cls-4" d="M416.54,317.35h6.65c.7,0,1.27,.57,1.27,1.27v11h-9.19v-11c0-.7,.57-1.27,1.27-1.27Z"/><path id="E-18" class="cls-4" d="M406.43,317.35h6.65c.7,0,1.27,.57,1.27,1.27v11h-9.19v-11c0-.7,.57-1.27,1.27-1.27Z"/><path id="D-18" class="cls-4" d="M396.32,317.35h6.65c.7,0,1.27,.57,1.27,1.27v11h-9.19v-11c0-.7,.57-1.27,1.27-1.27Z"/></g><g id="A-C-18"><path id="C-18" class="cls-4" d="M373.36,317.35h6.65c.7,0,1.27,.57,1.27,1.27v11h-9.19v-11c0-.7,.57-1.27,1.27-1.27Z"/><path id="B-18" class="cls-4" d="M363.25,317.35h6.65c.7,0,1.27,.57,1.27,1.27v11h-9.19v-11c0-.7,.57-1.27,1.27-1.27Z"/><path id="A-18" class="cls-4" d="M353.14,317.35h6.65c.7,0,1.27,.57,1.27,1.27v11h-9.19v-11c0-.7,.57-1.27,1.27-1.27Z"/></g></g><g id="Row_11"><g id="D-F-19"><path id="F-19" class="cls-4" d="M416.58,297.43h6.65c.7,0,1.27,.57,1.27,1.27v11h-9.19v-11c0-.7,.57-1.27,1.27-1.27Z"/><path id="E-19" class="cls-4" d="M406.47,297.43h6.65c.7,0,1.27,.57,1.27,1.27v11h-9.19v-11c0-.7,.57-1.27,1.27-1.27Z"/><path id="D-19" class="cls-4" d="M396.37,297.43h6.65c.7,0,1.27,.57,1.27,1.27v11h-9.19v-11c0-.7,.57-1.27,1.27-1.27Z"/></g><g id="A-C-19"><path id="C-19" class="cls-4" d="M373.4,297.43h6.65c.7,0,1.27,.57,1.27,1.27v11h-9.19v-11c0-.7,.57-1.27,1.27-1.27Z"/><path id="B-19" class="cls-4" d="M363.3,297.43h6.65c.7,0,1.27,.57,1.27,1.27v11h-9.19v-11c0-.7,.57-1.27,1.27-1.27Z"/><path id="A-19" class="cls-4" d="M353.19,297.43h6.65c.7,0,1.27,.57,1.27,1.27v11h-9.19v-11c0-.7,.57-1.27,1.27-1.27Z"/></g></g><g id="Row_10"><g id="D-F-20"><path id="F-20" class="cls-4" d="M416.58,280.77h6.65c.7,0,1.27,.57,1.27,1.27v11h-9.19v-11c0-.7,.57-1.27,1.27-1.27Z"/><path id="E-20" class="cls-4" d="M406.47,280.77h6.65c.7,0,1.27,.57,1.27,1.27v11h-9.19v-11c0-.7,.57-1.27,1.27-1.27Z"/><path id="D-20" class="cls-4" d="M396.37,280.77h6.65c.7,0,1.27,.57,1.27,1.27v11h-9.19v-11c0-.7,.57-1.27,1.27-1.27Z"/></g><g id="A-C-20"><path id="C-20" class="cls-4" d="M373.4,280.77h6.65c.7,0,1.27,.57,1.27,1.27v11h-9.19v-11c0-.7,.57-1.27,1.27-1.27Z"/><path id="B-20" class="cls-4" d="M363.3,280.77h6.65c.7,0,1.27,.57,1.27,1.27v11h-9.19v-11c0-.7,.57-1.27,1.27-1.27Z"/><path id="A-20" class="cls-4" d="M353.19,280.77h6.65c.7,0,1.27,.57,1.27,1.27v11h-9.19v-11c0-.7,.57-1.27,1.27-1.27Z"/></g></g><g id="Row_9"><g id="D-F-21"><path id="F-21" class="cls-4" d="M416.58,264.11h6.65c.7,0,1.27,.57,1.27,1.27v11h-9.19v-11c0-.7,.57-1.27,1.27-1.27Z"/><path id="E-21" class="cls-4" d="M406.47,264.11h6.65c.7,0,1.27,.57,1.27,1.27v11h-9.19v-11c0-.7,.57-1.27,1.27-1.27Z"/><path id="D-21" class="cls-4" d="M396.37,264.11h6.65c.7,0,1.27,.57,1.27,1.27v11h-9.19v-11c0-.7,.57-1.27,1.27-1.27Z"/></g><g id="A-C-21"><path id="C-21" class="cls-4" d="M373.4,264.11h6.65c.7,0,1.27,.57,1.27,1.27v11h-9.19v-11c0-.7,.57-1.27,1.27-1.27Z"/><path id="B-21" class="cls-4" d="M363.3,264.11h6.65c.7,0,1.27,.57,1.27,1.27v11h-9.19v-11c0-.7,.57-1.27,1.27-1.27Z"/><path id="A-21" class="cls-4" d="M353.19,264.11h6.65c.7,0,1.27,.57,1.27,1.27v11h-9.19v-11c0-.7,.57-1.27,1.27-1.27Z"/></g></g><g id="Row_8"><g id="D-F-22"><path id="F-22" class="cls-4" d="M416.58,247.45h6.65c.7,0,1.27,.57,1.27,1.27v11h-9.19v-11c0-.7,.57-1.27,1.27-1.27Z"/><path id="E-22" class="cls-4" d="M406.47,247.45h6.65c.7,0,1.27,.57,1.27,1.27v11h-9.19v-11c0-.7,.57-1.27,1.27-1.27Z"/><path id="D-22" class="cls-4" d="M396.37,247.45h6.65c.7,0,1.27,.57,1.27,1.27v11h-9.19v-11c0-.7,.57-1.27,1.27-1.27Z"/></g><g id="A-C-22"><path id="C-22" class="cls-4" d="M373.4,247.45h6.65c.7,0,1.27,.57,1.27,1.27v11h-9.19v-11c0-.7,.57-1.27,1.27-1.27Z"/><path id="B-22" class="cls-4" d="M363.3,247.45h6.65c.7,0,1.27,.57,1.27,1.27v11h-9.19v-11c0-.7,.57-1.27,1.27-1.27Z"/><path id="A-22" class="cls-4" d="M353.19,247.45h6.65c.7,0,1.27,.57,1.27,1.27v11h-9.19v-11c0-.7,.57-1.27,1.27-1.27Z"/></g></g><g id="Row_7"><g id="D-F-23"><path id="F-23" class="cls-4" d="M416.58,230.79h6.65c.7,0,1.27,.57,1.27,1.27v11h-9.19v-11c0-.7,.57-1.27,1.27-1.27Z"/><path id="E-23" class="cls-4" d="M406.47,230.79h6.65c.7,0,1.27,.57,1.27,1.27v11h-9.19v-11c0-.7,.57-1.27,1.27-1.27Z"/><path id="D-23" class="cls-4" d="M396.37,230.79h6.65c.7,0,1.27,.57,1.27,1.27v11h-9.19v-11c0-.7,.57-1.27,1.27-1.27Z"/></g><g id="A-C-23"><path id="C-23" class="cls-4" d="M373.4,230.79h6.65c.7,0,1.27,.57,1.27,1.27v11h-9.19v-11c0-.7,.57-1.27,1.27-1.27Z"/><path id="B-23" class="cls-4" d="M363.3,230.79h6.65c.7,0,1.27,.57,1.27,1.27v11h-9.19v-11c0-.7,.57-1.27,1.27-1.27Z"/><path id="A-23" class="cls-4" d="M353.19,230.79h6.65c.7,0,1.27,.57,1.27,1.27v11h-9.19v-11c0-.7,.57-1.27,1.27-1.27Z"/></g></g><g id="Row_6"><g id="D-F-24"><path id="F-24" class="cls-4" d="M416.58,214.13h6.65c.7,0,1.27,.57,1.27,1.27v11h-9.19v-11c0-.7,.57-1.27,1.27-1.27Z"/><path id="E-24" class="cls-4" d="M406.47,214.13h6.65c.7,0,1.27,.57,1.27,1.27v11h-9.19v-11c0-.7,.57-1.27,1.27-1.27Z"/><path id="D-24" class="cls-4" d="M396.37,214.13h6.65c.7,0,1.27,.57,1.27,1.27v11h-9.19v-11c0-.7,.57-1.27,1.27-1.27Z"/></g><g id="A-C-24"><path id="C-24" class="cls-4" d="M373.4,214.13h6.65c.7,0,1.27,.57,1.27,1.27v11h-9.19v-11c0-.7,.57-1.27,1.27-1.27Z"/><path id="B-24" class="cls-4" d="M363.3,214.13h6.65c.7,0,1.27,.57,1.27,1.27v11h-9.19v-11c0-.7,.57-1.27,1.27-1.27Z"/><path id="A-24" class="cls-4" d="M353.19,214.13h6.65c.7,0,1.27,.57,1.27,1.27v11h-9.19v-11c0-.7,.57-1.27,1.27-1.27Z"/></g></g><g id="Row_5"><g id="D-F-25"><path id="F-25" class="cls-4" d="M416.58,197.46h6.65c.7,0,1.27,.57,1.27,1.27v11h-9.19v-11c0-.7,.57-1.27,1.27-1.27Z"/><path id="E-25" class="cls-4" d="M406.47,197.46h6.65c.7,0,1.27,.57,1.27,1.27v11h-9.19v-11c0-.7,.57-1.27,1.27-1.27Z"/><path id="D-25" class="cls-4" d="M396.37,197.46h6.65c.7,0,1.27,.57,1.27,1.27v11h-9.19v-11c0-.7,.57-1.27,1.27-1.27Z"/></g><g id="A-C-25"><path id="C-25" class="cls-4" d="M373.4,197.46h6.65c.7,0,1.27,.57,1.27,1.27v11h-9.19v-11c0-.7,.57-1.27,1.27-1.27Z"/><path id="B-25" class="cls-4" d="M363.3,197.46h6.65c.7,0,1.27,.57,1.27,1.27v11h-9.19v-11c0-.7,.57-1.27,1.27-1.27Z"/><path id="A-25" class="cls-4" d="M353.19,197.46h6.65c.7,0,1.27,.57,1.27,1.27v11h-9.19v-11c0-.7,.57-1.27,1.27-1.27Z"/></g></g><g id="Row_4"><g id="D-F-26"><path id="F-26" class="cls-4" d="M416.58,180.8h6.65c.7,0,1.27,.57,1.27,1.27v11h-9.19v-11c0-.7,.57-1.27,1.27-1.27Z"/><path id="E-26" class="cls-4" d="M406.47,180.8h6.65c.7,0,1.27,.57,1.27,1.27v11h-9.19v-11c0-.7,.57-1.27,1.27-1.27Z"/><path id="D-26" class="cls-4" d="M396.37,180.8h6.65c.7,0,1.27,.57,1.27,1.27v11h-9.19v-11c0-.7,.57-1.27,1.27-1.27Z"/></g><g id="A-C-26"><path id="C-26" class="cls-4" d="M373.4,180.8h6.65c.7,0,1.27,.57,1.27,1.27v11h-9.19v-11c0-.7,.57-1.27,1.27-1.27Z"/><path id="B-26" class="cls-4" d="M363.3,180.8h6.65c.7,0,1.27,.57,1.27,1.27v11h-9.19v-11c0-.7,.57-1.27,1.27-1.27Z"/><path id="A-26" class="cls-4" d="M353.19,180.8h6.65c.7,0,1.27,.57,1.27,1.27v11h-9.19v-11c0-.7,.57-1.27,1.27-1.27Z"/></g></g><g id="Row_3"><g id="D-F-27"><path id="F-27" class="cls-4" d="M416.58,164.14h6.65c.7,0,1.27,.57,1.27,1.27v11h-9.19v-11c0-.7,.57-1.27,1.27-1.27Z"/><path id="E-27" class="cls-4" d="M406.47,164.14h6.65c.7,0,1.27,.57,1.27,1.27v11h-9.19v-11c0-.7,.57-1.27,1.27-1.27Z"/><path id="D-27" class="cls-4" d="M396.37,164.14h6.65c.7,0,1.27,.57,1.27,1.27v11h-9.19v-11c0-.7,.57-1.27,1.27-1.27Z"/></g><g id="A-C-27"><path id="C-27" class="cls-4" d="M373.4,164.14h6.65c.7,0,1.27,.57,1.27,1.27v11h-9.19v-11c0-.7,.57-1.27,1.27-1.27Z"/><path id="B-27" class="cls-4" d="M363.3,164.14h6.65c.7,0,1.27,.57,1.27,1.27v11h-9.19v-11c0-.7,.57-1.27,1.27-1.27Z"/><path id="A-27" class="cls-4" d="M353.19,164.14h6.65c.7,0,1.27,.57,1.27,1.27v11h-9.19v-11c0-.7,.57-1.27,1.27-1.27Z"/></g></g><g id="Row_2"><g id="D-F-28"><path id="F-28" class="cls-4" d="M416.58,147.48h6.65c.7,0,1.27,.57,1.27,1.27v11h-9.19v-11c0-.7,.57-1.27,1.27-1.27Z"/><path id="E-28" class="cls-4" d="M406.47,147.48h6.65c.7,0,1.27,.57,1.27,1.27v11h-9.19v-11c0-.7,.57-1.27,1.27-1.27Z"/><path id="D-28" class="cls-4" d="M396.37,147.48h6.65c.7,0,1.27,.57,1.27,1.27v11h-9.19v-11c0-.7,.57-1.27,1.27-1.27Z"/></g><g id="A-C-28"><path id="C-28" class="cls-4" d="M373.4,147.48h6.65c.7,0,1.27,.57,1.27,1.27v11h-9.19v-11c0-.7,.57-1.27,1.27-1.27Z"/><path id="B-28" class="cls-4" d="M363.3,147.48h6.65c.7,0,1.27,.57,1.27,1.27v11h-9.19v-11c0-.7,.57-1.27,1.27-1.27Z"/><path id="A-28" class="cls-4" d="M353.19,147.48h6.65c.7,0,1.27,.57,1.27,1.27v11h-9.19v-11c0-.7,.57-1.27,1.27-1.27Z"/></g></g><g id="Row_1"><g id="D-F-29"><path id="F-29" class="cls-4" d="M416.58,130.82h6.65c.7,0,1.27,.57,1.27,1.27v11h-9.19v-11c0-.7,.57-1.27,1.27-1.27Z"/><path id="E-29" class="cls-4" d="M406.47,130.82h6.65c.7,0,1.27,.57,1.27,1.27v11h-9.19v-11c0-.7,.57-1.27,1.27-1.27Z"/><path id="D-29" class="cls-4" d="M396.37,130.82h6.65c.7,0,1.27,.57,1.27,1.27v11h-9.19v-11c0-.7,.57-1.27,1.27-1.27Z"/></g><g id="A-C-29"><path id="C-29" class="cls-4" d="M373.4,130.82h6.65c.7,0,1.27,.57,1.27,1.27v11h-9.19v-11c0-.7,.57-1.27,1.27-1.27Z"/><path id="B-29" class="cls-4" d="M363.3,130.82h6.65c.7,0,1.27,.57,1.27,1.27v11h-9.19v-11c0-.7,.57-1.27,1.27-1.27Z"/><path id="A-29" class="cls-4" d="M353.19,130.82h6.65c.7,0,1.27,.57,1.27,1.27v11h-9.19v-11c0-.7,.57-1.27,1.27-1.27Z"/></g></g></g><g id="SVG"><g id="SVG_Detail_Lines"><g id="Engines"><g id="ENG_1"><g id="Strakes"><path id="Outer_Strake" class="cls-5" d="M245.67,265.78l1.36,21.31-6.67,.39c.61-8.46,2.21-16.4,5.3-21.71Z"/><path id="Inner_Strake" class="cls-5" d="M276.83,265.78l-1.36,21.31,6.67,.39c-.61-8.46-2.21-16.4-5.3-21.71Z"/></g><g id="Reverser_Door"><path id="Outer_Side" class="cls-5" d="M256.92,295.91c-7.92,0-14.42-.09-19.83-.7"/><path id="Inner_Side" class="cls-5" d="M265.58,295.91c7.92,0,14.42-.09,19.83-.7"/></g><g id="Engine_Mount"><g id="Connections"><path id="Fan_Connection" class="cls-7" d="M238.37,261.87l.37-2.34c14.97-1.51,30.05-1.51,45.02,0l.37,2.34"/><line id="Middle_Connection" class="cls-7" x1="261.25" y1="252.6" x2="261.25" y2="258.4"/></g><g id="Mounts"><line id="Left_Mount" class="cls-5" x1="255.06" y1="295.9" x2="255.06" y2="258.4"/><line id="Right_Mount" class="cls-5" x1="267.39" y1="295.9" x2="267.39" y2="258.48"/><line id="Front_Mount" class="cls-5" x1="255.06" y1="260.72" x2="267.39" y2="260.72"/></g></g><polyline id="Wing_Mount" class="cls-5" points="272.64 321.82 265.04 325.79 255.06 335.36"/></g><g id="ENG_2"><g id="Strakes-2"><path id="Outer_Strake-2" class="cls-5" d="M530.97,265.78l-1.36,21.31,6.67,.39c-.61-8.46-2.21-16.4-5.3-21.71Z"/><path id="Inner_Strake-2" class="cls-5" d="M499.81,265.78l1.36,21.31-6.67,.39c.61-8.46,2.21-16.4,5.3-21.71Z"/></g><g id="Reverser_Door-2"><path id="Outer_Side-2" class="cls-5" d="M519.72,295.91c7.92,0,14.42-.09,19.83-.7"/><path id="Inner_Side-2" class="cls-5" d="M511.05,295.91c-7.92,0-14.42-.09-19.83-.7"/></g><g id="Engine_Mount-2"><g id="Connections-2"><path id="Fan_Connection-2" class="cls-7" d="M538.27,261.87l-.37-2.34c-14.97-1.51-30.05-1.51-45.02,0l-.37,2.34"/><line id="Middle_Connection-2" class="cls-7" x1="515.39" y1="252.6" x2="515.39" y2="258.4"/></g><g id="Mounts-2"><line id="Right_Mount-2" class="cls-5" x1="521.58" y1="295.9" x2="521.58" y2="258.4"/><line id="Left_Mount-2" class="cls-5" x1="509.25" y1="295.9" x2="509.25" y2="258.48"/><line id="Front_Mount-2" class="cls-5" x1="521.58" y1="260.72" x2="509.25" y2="260.72"/></g></g><polyline id="Wing_Mount-2" class="cls-5" points="503.99 321.82 511.6 325.79 520.75 334.4"/></g></g><g id="Emergency_Lines"><path id="Left_Emergency_Marks" class="cls-5" d="M346.2,307h-20.55c-3.49,0-6.31,2.83-6.31,6.31v84.6"/><path id="Right_Emergency_Marks" class="cls-5" d="M430.18,307h20.55c3.49,0,6.31,2.83,6.31,6.31v84.6"/></g><g id="Wing_Layers"><polyline id="Left_Wing_Markings" class="cls-5" points="346.2 292.33 35.36 449.78 35.36 461.67 255.22 374.33 319.33 362.12"/><polyline id="Right_Wing_Markings" class="cls-5" points="430.19 292.71 742.29 450.83 742.29 462.17 521.17 374.33 457.08 362.12"/></g><g id="Doors"><g id="Rear_Doors"><path id="AFT_Left_PS_PSS" class="cls-2" d="M352.06,650.21h5.13c1.55,0,2.74-1.36,2.54-2.9l-1.55-11.75c-.17-1.28-1.25-2.23-2.54-2.23h-6.16"/><path id="AFT_Right_CAT" class="cls-2" d="M424.48,650.21h-5.13c-1.55,0-2.74-1.36-2.54-2.9l1.55-11.75c.17-1.28,1.25-2.23,2.54-2.23h6.16"/></g><g id="Emergency_Doors"><path id="AFT_Left_EMG" class="cls-2" d="M346.2,337.61h3.14c.95,0,1.72-.77,1.72-1.72v-7.61c0-.95-.77-1.72-1.72-1.72h-3.14"/><path id="FWD_Left_EMG" class="cls-2" d="M346.2,319.32h3.14c.95,0,1.72-.77,1.72-1.72v-7.61c0-.95-.77-1.72-1.72-1.72h-3.14"/><path id="AFT_Right_EMG" class="cls-2" d="M430.28,337.61h-3.14c-.95,0-1.72-.77-1.72-1.72v-7.61c0-.95,.77-1.72,1.72-1.72h3.14"/><path id="FWD_Right_EMG" class="cls-2" d="M430.28,319.32h-3.14c-.95,0-1.72-.77-1.72-1.72v-7.61c0-.95,.77-1.72,1.72-1.72h3.14"/></g><g id="Front_Doors"><path id="FWD_Right_CAT" class="cls-2" d="M430.28,118.06h-9.08c-1.47,0-2.67-1.19-2.67-2.67v-11.72c0-1.47,1.19-2.67,2.67-2.67h8.38"/><path id="FWD_Left_PS_PSS" class="cls-2" d="M346.2,118.06h9.08c1.47,0,2.67-1.19,2.67-2.67v-11.72c0-1.47-1.19-2.67-2.67-2.67h-8.38"/></g></g></g><g id="SVG_Main_Lines"><g id="Rear_Stablizer"><g id="Right_Fin"><polyline id="Right_Elevator" class="cls-1" points="409.78 769.69 412.81 748.33 522.79 786.89"/><path id="Right_Fin_Outline" class="cls-3" d="M405.01,769.34c3.31-.08,7.06,.74,8.21,1.02,3.98,.98,109.58,24.53,109.58,24.53v-12.35c0-6.22-1.16-14.42-6.88-17.99,.08,.17-86.62-55.2-86.62-55.2-5.14-3.32-10.2-6.8-12.7-16.62"/></g><g id="Left_Fin"><polyline id="Left_Elevator" class="cls-1" points="366.7 769.69 363.67 748.33 253.69 786.89"/><path id="Left_Fin_Outline" class="cls-3" d="M371.47,769.34c-3.31-.08-7.06,.74-8.21,1.02-3.98,.98-109.58,24.53-109.58,24.53v-12.35c0-6.22,1.16-14.42,6.88-17.99-.08,.17,86.62-55.2,86.62-55.2,5.14-3.32,10.2-6.8,12.7-16.62"/></g></g><g id="Wings"><g id="Right_Wing"><g id="Right_Slats"><polyline id="Inner_Slats" class="cls-1" points="436.35 283.52 436.35 293.89 500.48 327 505.04 319.15"/><g id="Main_Slats"><line id="Outer_Divider" class="cls-1" x1="692.06" y1="423.46" x2="695.35" y2="417.87"/><line id="Middle_Divider" class="cls-1" x1="637.09" y1="395.69" x2="640.86" y2="389.6"/><line id="Inner_Divider" class="cls-1" x1="582.46" y1="368.11" x2="586.09" y2="361.19"/><polyline id="Main_Slats_Outline" class="cls-1" points="740.33 441.28 737.03 446.17 520.75 336.94 520.75 327.22"/></g></g><g id="Right_Wing_Flap_Fairings"><path id="Outer" class="cls-1" d="M645.34,447.05c-.41,8.89,2.83,18.13,2.83,18.13,0,0,2.62-8.94,2.87-16.34"/><path id="Middle" class="cls-1" d="M565.52,422.12c-.15,6.84,3.02,17.3,3.02,17.3,0,0,3.04-10.89,3.24-15.35"/><path id="Inner" class="cls-1" d="M490.43,409.89c0,6.63,3.2,15.28,3.2,15.28,0,0,2.71-9.28,2.71-15.28"/></g><g id="Right_Flaps"><line id="Flap_Divider" class="cls-1" x1="527.05" y1="410.11" x2="527.05" y2="398.76"/><polyline id="Flap_Outline" class="cls-1" points="430.28 397.92 524.73 397.92 680.81 454.5 680.81 458.13"/></g><g id="Right_Spoilers"><polyline id="Inner_Spoiler" class="cls-1" points="494.37 397.92 494.37 384 524.71 384 524.79 397.92"/><g id="Main_Spoilers"><line id="Outer_Divider-2" class="cls-1" x1="639.29" y1="439.42" x2="644.25" y2="425.61"/><line id="Middle_Divider-2" class="cls-1" x1="606.89" y1="427.68" x2="612.14" y2="413.98"/><line id="Inner_Divider-2" class="cls-1" x1="570.46" y1="414.47" x2="575.8" y2="400.82"/><polyline id="Main_Spoiler_Outline" class="cls-1" points="534.5 401.44 540.87 388.17 676.62 437.33 671.94 451.26"/></g></g><polyline id="Right_Aileron" class="cls-1" points="742.29 476.96 742.29 463.61 686.03 443.39 684.64 446.17 684.64 458.9"/><g id="ENG_2-2"><path id="Engine_Mount-3" class="cls-1" d="M511.05,321.93v-47.43c0-5.5,1.29-10.5,4.29-10.5h.05c3,0,4.33,5,4.33,10.5v51.92"/><path id="Engine" class="cls-3" d="M519.72,320.06h15.53c.62,0,1.15-.43,1.26-1.04,.72-3.83,3.13-17.76,3.13-34.18,0-19.33-1.92-31.04-3-32.5-1.67-2.25-4.6-3.94-21.18-3.94h-.15c-16.58,0-19.5,1.69-21.17,3.94-1.08,1.46-3,13.17-3,32.5,0,11.27,1.13,21.38,2.08,27.84"/><path id="Exhaust" class="cls-1" d="M530.05,320.06s-1.97,8.42-3.34,10"/><line id="Engine_Inner_end" class="cls-3" x1="507.45" y1="320.06" x2="511.05" y2="320.06"/><path id="Cowling" class="cls-1" d="M493.6,255.65c0-4.06,43.58-4.06,43.58,0"/></g><path id="Right_Wing_Outliine" class="cls-3" d="M430.28,409.89h96.07l225.04,70.28s3.99,14.18,5.65,14.18-3.56-29.35-3.74-30.59c0,0-2.65-17.49-13.84-23.29s-303.78-157.57-303.78-157.57c-2.57-1.57-5.39-30-5.39-30"/></g><g id="Left_Wing"><g id="Left_Slats"><polyline id="Inner_Slats-2" class="cls-1" points="339.62 283.52 339.62 293.89 275.5 327 270.93 319.15"/><g id="Main_Slats-2"><line id="Outer_Divider-3" class="cls-1" x1="83.92" y1="423.46" x2="80.62" y2="417.87"/><line id="Middle_Divider-3" class="cls-1" x1="138.89" y1="395.69" x2="135.11" y2="389.6"/><line id="Inner_Divider-3" class="cls-1" x1="193.51" y1="368.11" x2="189.89" y2="361.19"/><polyline id="Main_Slats_Outline-2" class="cls-1" points="35.65 441.28 38.94 446.17 255.22 336.94 255.22 327.22"/></g></g><g id="Left_Wing_Flap_Fairings"><path id="Outer-2" class="cls-1" d="M131.14,447.05c.41,8.89-2.83,18.13-2.83,18.13,0,0-2.62-8.94-2.87-16.34"/><path id="Middle-2" class="cls-1" d="M210.96,422.12c.15,6.84-3.02,17.3-3.02,17.3,0,0-3.04-10.89-3.24-15.35"/><path id="Inner-2" class="cls-1" d="M286.05,409.89c0,6.63-3.2,15.28-3.2,15.28,0,0-2.71-9.28-2.71-15.28"/></g><g id="Left_Flaps"><line id="Flap_Divider-2" class="cls-1" x1="249.43" y1="410.11" x2="249.43" y2="398.76"/><polyline id="Flap_Outline-2" class="cls-1" points="346.2 397.92 251.75 397.92 95.67 454.5 95.67 458.13"/></g><g id="Left_Spoilers"><polyline id="Inner_Spoiler-2" class="cls-1" points="282.17 397.92 282.17 384 251.83 384 251.75 397.92"/><g id="Main_Spoilers-2"><line id="Outer_Divider-4" class="cls-1" x1="137.25" y1="439.42" x2="132.29" y2="425.61"/><line id="Middle_Divider-4" class="cls-1" x1="169.65" y1="427.68" x2="164.4" y2="413.98"/><line id="Inner_Divider-4" class="cls-1" x1="206.08" y1="414.47" x2="200.74" y2="400.82"/><polyline id="Main_Spoilers_Outline" class="cls-1" points="242.04 401.44 235.67 388.17 99.92 437.33 104.6 451.26"/></g></g><polyline id="Left_Aileron" class="cls-1" points="35.36 476.96 35.36 463.61 91.61 443.39 93 446.17 93 458.9"/><g id="ENG_1-2"><path id="Engine_Mount-4" class="cls-1" d="M265.58,321.93v-47.43c0-5.5-1.29-10.5-4.29-10.5h-.05c-3,0-4.33,5-4.33,10.5v51.92"/><path id="Engine-2" class="cls-3" d="M256.92,320.06h-15.53c-.62,0-1.15-.43-1.26-1.04-.72-3.83-3.13-17.76-3.13-34.18,0-19.33,1.92-31.04,3-32.5,1.67-2.25,4.6-3.94,21.18-3.94h.15c16.58,0,19.5,1.69,21.17,3.94,1.08,1.46,3,13.17,3,32.5,0,11.27-1.13,21.38-2.08,27.84"/><path id="Exhaust-2" class="cls-1" d="M246.58,320.06s1.97,8.42,3.34,10"/><line id="Engine_Inner_end-2" class="cls-3" x1="269.19" y1="320.06" x2="265.58" y2="320.06"/><path id="Cowling-2" class="cls-1" d="M239.46,255.65c0-4.06,43.58-4.06,43.58,0"/></g><path id="Left_Wing_Outline" class="cls-3" d="M346.2,409.89h-96.07L25.09,480.17s-3.99,14.18-5.65,14.18,3.56-29.35,3.74-30.59c0,0,2.65-17.49,13.84-23.29,11.19-5.8,303.78-157.57,303.78-157.57,2.57-1.57,5.39-30,5.39-30"/></g></g><g id="Fuselage"><path id="APU_Exhaust" class="cls-1" d="M384.38,809.8l.59-.08c2.34-.3,4.71-.28,7.04,.06h.08"/><g id="Cockpit_Windows"><g id="Cockpit_Windows_Left"><path class="cls-1" d="M373.46,47.17l12.18-6.93c.37-.21,.6-.6,.6-1.02v-7c0-.92-1.04-1.47-1.8-.95l-14.67,10c-.6,.41-.75,1.24-.32,1.83l2.72,3.79c.3,.41,.86,.53,1.3,.28Z"/><path class="cls-1" d="M367.17,44.57l2.08,2.55c.21,.26,.33,.58,.33,.92v2.37c0,.31-.08,.61-.24,.88l-3.39,5.74c-.24,.4-.67,.65-1.14,.65h-3.74c-.63,0-1.14-.51-1.14-1.14v-.49c0-.29,.07-.58,.21-.84l5.53-10.49c.31-.58,1.1-.66,1.51-.15Z"/><path class="cls-1" d="M364.33,61.34l-2.56,6.51c-.07,.18-.18,.34-.31,.48l-3.05,3.5c-.54,.62-1.32,.98-2.15,.98h-1.17c-.9,0-1.5-.91-1.16-1.74l4.22-10.07c.19-.43,.61-.71,1.08-.71h4.37c.54,0,.92,.55,.72,1.06Z"/></g><g id="Cockpit_Windows_Right"><path class="cls-1" d="M402.93,47.17l-12.18-6.93c-.37-.21-.6-.6-.6-1.02v-7c0-.92,1.04-1.47,1.8-.95l14.67,10c.6,.41,.75,1.24,.32,1.83l-2.72,3.79c-.3,.41-.86,.53-1.3,.28Z"/><path class="cls-1" d="M409.22,44.57l-2.08,2.55c-.21,.26-.33,.58-.33,.92v2.37c0,.31,.08,.61,.24,.88l3.39,5.74c.24,.4,.67,.65,1.14,.65h3.74c.63,0,1.14-.51,1.14-1.14v-.49c0-.29-.07-.58-.21-.84l-5.53-10.49c-.31-.58-1.1-.66-1.51-.15Z"/><path class="cls-1" d="M412.06,61.34l2.56,6.51c.07,.18,.18,.34,.31,.48l3.05,3.5c.54,.62,1.32,.98,2.15,.98h1.17c.9,0,1.5-.91,1.16-1.74l-4.22-10.07c-.19-.43-.61-.71-1.08-.71h-4.37c-.54,0-.92,.55-.72,1.06Z"/></g></g><path id="Fuselage_Outline" class="cls-3" d="M388.23,3c3.78,0,8.46,3.32,13.37,10.72,11.88,17.9,18.4,36.91,23.48,58.24,4.2,17.63,5.19,34.26,5.19,47.3v478.7c0,34.54-17.99,114-17.99,114l-3.73,19.23c-.1,.51-.16,1.03-.17,1.56l-.61,16.28c-.58,9.82-2.6,20.14-6.01,32.56-3.12,11.37-5.9,24.12-11.09,30.1-.12,.13-.29,.21-.46,.21h-3.95c-.18,0-.35-.07-.46-.21-5.19-5.98-7.97-18.73-11.09-30.1-3.41-12.42-5.43-22.74-6.01-32.56l-.61-16.28c-.01-.52-.07-1.04-.17-1.56l-3.73-19.23s-17.99-79.46-17.99-114V119.26c0-13.04,.99-29.67,5.19-47.3,5.08-21.33,11.6-40.34,23.48-58.24,4.91-7.4,9.51-10.72,13.29-10.72h.06Z"/></g></g></g></svg>