<?xml version="1.0" encoding="UTF-8"?><svg id="SVG" xmlns="http://www.w3.org/2000/svg" viewBox="0 0 777 814"><defs><style>.cls-1,.cls-2,.cls-3,.cls-4,.cls-5,.cls-6,.cls-7,.cls-8{fill:none;stroke-miterlimit:10;}.cls-1,.cls-4{stroke:#fff;}.cls-2,.cls-3,.cls-4,.cls-6,.cls-8{stroke-width:2px;}.cls-2,.cls-3,.cls-6,.cls-8{stroke:#6bbe45;}.cls-3{stroke-dasharray:0 0 4.03 4.03;}.cls-5{stroke:#ccc;}.cls-5,.cls-7{stroke-width:.5px;}.cls-6{stroke-dasharray:0 0 4.32 4.32;}.cls-7{stroke:#d1d3d4;}.cls-8{stroke-dasharray:0 0 4.08 4.08;}</style></defs><g id="SVG_Detail_Lines"><g id="Engines"><g id="ENG_1"><g id="Strakes"><path id="Outer_Strake" class="cls-5" d="M245.67,265.78l1.36,21.31-6.67,.39c.61-8.46,2.21-16.4,5.3-21.71Z"/><path id="Inner_Strake" class="cls-5" d="M276.83,265.78l-1.36,21.31,6.67,.39c-.61-8.46-2.21-16.4-5.3-21.71Z"/></g><g id="Reverser_Door"><path id="Outer_Side" class="cls-5" d="M256.92,295.91c-7.92,0-14.42-.09-19.83-.7"/><path id="Inner_Side" class="cls-5" d="M265.58,295.91c7.92,0,14.42-.09,19.83-.7"/></g><g id="Engine_Mount"><g id="Connections"><path id="Fan_Connection" class="cls-7" d="M238.37,261.87l.37-2.34c14.97-1.51,30.05-1.51,45.02,0l.37,2.34"/><line id="Middle_Connection" class="cls-7" x1="261.25" y1="252.6" x2="261.25" y2="258.4"/></g><g id="Mounts"><line id="Left_Mount" class="cls-5" x1="255.06" y1="295.9" x2="255.06" y2="258.4"/><line id="Right_Mount" class="cls-5" x1="267.39" y1="295.9" x2="267.39" y2="258.48"/><line id="Front_Mount" class="cls-5" x1="255.06" y1="260.72" x2="267.39" y2="260.72"/></g></g><polyline id="Wing_Mount" class="cls-5" points="272.64 321.82 265.04 325.79 255.06 335.36"/></g><g id="ENG_2"><g id="Strakes-2"><path id="Outer_Strake-2" class="cls-5" d="M530.97,265.78l-1.36,21.31,6.67,.39c-.61-8.46-2.21-16.4-5.3-21.71Z"/><path id="Inner_Strake-2" class="cls-5" d="M499.81,265.78l1.36,21.31-6.67,.39c.61-8.46,2.21-16.4,5.3-21.71Z"/></g><g id="Reverser_Door-2"><path id="Outer_Side-2" class="cls-5" d="M519.72,295.91c7.92,0,14.42-.09,19.83-.7"/><path id="Inner_Side-2" class="cls-5" d="M511.05,295.91c-7.92,0-14.42-.09-19.83-.7"/></g><g id="Engine_Mount-2"><g id="Connections-2"><path id="Fan_Connection-2" class="cls-7" d="M538.27,261.87l-.37-2.34c-14.97-1.51-30.05-1.51-45.02,0l-.37,2.34"/><line id="Middle_Connection-2" class="cls-7" x1="515.39" y1="252.6" x2="515.39" y2="258.4"/></g><g id="Mounts-2"><line id="Right_Mount-2" class="cls-5" x1="521.58" y1="295.9" x2="521.58" y2="258.4"/><line id="Left_Mount-2" class="cls-5" x1="509.25" y1="295.9" x2="509.25" y2="258.48"/><line id="Front_Mount-2" class="cls-5" x1="521.58" y1="260.72" x2="509.25" y2="260.72"/></g></g><polyline id="Wing_Mount-2" class="cls-5" points="503.99 321.82 511.6 325.79 520.75 334.4"/></g></g><g id="Emergency_Lines"><path id="Left_Emergency_Marks" class="cls-5" d="M346.2,307h-20.55c-3.49,0-6.31,2.83-6.31,6.31v84.6"/><path id="Right_Emergency_Marks" class="cls-5" d="M430.18,307h20.55c3.49,0,6.31,2.83,6.31,6.31v84.6"/></g><g id="Wing_Layers"><polyline id="Left_Wing_Markings" class="cls-5" points="346.2 292.33 35.36 449.78 35.36 461.67 255.22 374.33 319.33 362.12"/><polyline id="Right_Wing_Markings" class="cls-5" points="430.19 292.71 742.29 450.83 742.29 462.17 521.17 374.33 457.08 362.12"/></g><g id="Doors"><g id="Rear_Doors"><path id="AFT_Left_PS_PSS" class="cls-2" d="M352.06,650.21h5.13c1.55,0,2.74-1.36,2.54-2.9l-1.55-11.75c-.17-1.28-1.25-2.23-2.54-2.23h-6.16"/><path id="AFT_Right_CAT" class="cls-2" d="M424.48,650.21h-5.13c-1.55,0-2.74-1.36-2.54-2.9l1.55-11.75c.17-1.28,1.25-2.23,2.54-2.23h6.16"/></g><g id="Emergency_Doors"><path id="AFT_Left_EMG" class="cls-2" d="M346.2,337.61h3.14c.95,0,1.72-.77,1.72-1.72v-7.61c0-.95-.77-1.72-1.72-1.72h-3.14"/><path id="FWD_Left_EMG" class="cls-2" d="M346.2,319.32h3.14c.95,0,1.72-.77,1.72-1.72v-7.61c0-.95-.77-1.72-1.72-1.72h-3.14"/><path id="AFT_Right_EMG" class="cls-2" d="M430.28,337.61h-3.14c-.95,0-1.72-.77-1.72-1.72v-7.61c0-.95,.77-1.72,1.72-1.72h3.14"/><path id="FWD_Right_EMG" class="cls-2" d="M430.28,319.32h-3.14c-.95,0-1.72-.77-1.72-1.72v-7.61c0-.95,.77-1.72,1.72-1.72h3.14"/></g><g id="Front_Doors"><path id="FWD_Right_CAT" class="cls-2" d="M430.28,118.06h-9.08c-1.47,0-2.67-1.19-2.67-2.67v-11.72c0-1.47,1.19-2.67,2.67-2.67h8.38"/><path id="FWD_Left_PS_PSS" class="cls-2" d="M346.2,118.06h9.08c1.47,0,2.67-1.19,2.67-2.67v-11.72c0-1.47-1.19-2.67-2.67-2.67h-8.38"/></g><g id="Cargo_Doors"><g id="BLK_Cargo"><g><line class="cls-2" x1="430.19" y1="553.33" x2="428.19" y2="553.33"/><path class="cls-6" d="M423.87,553.33h-7.83c-1.4,0-2.54,1.14-2.54,2.54v15.25c0,1.4,1.14,2.54,2.54,2.54h9.99"/><line class="cls-2" x1="428.19" y1="573.67" x2="430.19" y2="573.67"/></g></g><g id="AFT_Cargo"><g><line class="cls-2" x1="430.18" y1="503" x2="428.18" y2="503"/><path class="cls-3" d="M424.16,503h-14.91c-1.98,0-3.58-1.6-3.58-3.58v-27.33c0-1.98,1.6-3.58,3.58-3.58h17.02"/><line class="cls-2" x1="428.28" y1="468.5" x2="430.28" y2="468.5"/></g></g><g id="FWD_Cargo"><g><line class="cls-2" x1="430.28" y1="154.67" x2="428.28" y2="154.67"/><path class="cls-8" d="M424.2,154.67h-15.17c-2.13,0-3.86,1.73-3.86,3.86v26.94c0,2.13,1.73,3.86,3.86,3.86h17.21"/><line class="cls-2" x1="428.28" y1="189.33" x2="430.28" y2="189.33"/></g></g></g></g></g><g id="SVG_Main_Lines"><g id="Rear_Stablizer"><g id="Right_Fin"><polyline id="Right_Elevator" class="cls-1" points="409.78 769.69 412.81 748.33 522.79 786.89"/><path id="Right_Fin_Outline" class="cls-4" d="M405.01,769.34c3.31-.08,7.06,.74,8.21,1.02,3.98,.98,109.58,24.53,109.58,24.53v-12.35c0-6.22-1.16-14.42-6.88-17.99,.08,.17-86.62-55.2-86.62-55.2-5.14-3.32-10.2-6.8-12.7-16.62"/></g><g id="Left_Fin"><polyline id="Left_Elevator" class="cls-1" points="366.7 769.69 363.67 748.33 253.69 786.89"/><path id="Left_Fin_Outline" class="cls-4" d="M371.47,769.34c-3.31-.08-7.06,.74-8.21,1.02-3.98,.98-109.58,24.53-109.58,24.53v-12.35c0-6.22,1.16-14.42,6.88-17.99-.08,.17,86.62-55.2,86.62-55.2,5.14-3.32,10.2-6.8,12.7-16.62"/></g><path id="Rudder" class="cls-4" d="M388.5,796.17s-6-61-6-87.33,2.5-75.5,6-75.5h.07c3.5,0,5.93,49.17,5.93,75.5s-6,87.33-6,87.33"/></g><g id="Wings"><g id="Right_Wing"><g id="Right_Slats"><polyline id="Inner_Slats" class="cls-1" points="436.35 283.52 436.35 293.89 500.48 327 505.04 319.15"/><g id="Main_Slats"><line id="Outer_Divider" class="cls-1" x1="692.06" y1="423.46" x2="695.35" y2="417.87"/><line id="Middle_Divider" class="cls-1" x1="637.09" y1="395.69" x2="640.86" y2="389.6"/><line id="Inner_Divider" class="cls-1" x1="582.46" y1="368.11" x2="586.09" y2="361.19"/><polyline id="Main_Slats_Outline" class="cls-1" points="740.33 441.28 737.03 446.17 520.75 336.94 520.75 327.22"/></g></g><g id="Right_Wing_Flap_Fairings"><path id="Outer" class="cls-1" d="M645.34,447.05c-.41,8.89,2.83,18.13,2.83,18.13,0,0,2.62-8.94,2.87-16.34"/><path id="Middle" class="cls-1" d="M565.52,422.12c-.15,6.84,3.02,17.3,3.02,17.3,0,0,3.04-10.89,3.24-15.35"/><path id="Inner" class="cls-1" d="M490.43,409.89c0,6.63,3.2,15.28,3.2,15.28,0,0,2.71-9.28,2.71-15.28"/></g><g id="Right_Flaps"><line id="Flap_Divider" class="cls-1" x1="527.05" y1="410.11" x2="527.05" y2="398.76"/><polyline id="Flap_Outline" class="cls-1" points="430.28 397.92 524.73 397.92 680.81 454.5 680.81 458.13"/></g><g id="Right_Spoilers"><polyline id="Inner_Spoiler" class="cls-1" points="494.37 397.92 494.37 384 524.71 384 524.79 397.92"/><g id="Main_Spoilers"><line id="Outer_Divider-2" class="cls-1" x1="639.29" y1="439.42" x2="644.25" y2="425.61"/><line id="Middle_Divider-2" class="cls-1" x1="606.89" y1="427.68" x2="612.14" y2="413.98"/><line id="Inner_Divider-2" class="cls-1" x1="570.46" y1="414.47" x2="575.8" y2="400.82"/><polyline id="Main_Spoiler_Outline" class="cls-1" points="534.5 401.44 540.87 388.17 676.62 437.33 671.94 451.26"/></g></g><polyline id="Right_Aileron" class="cls-1" points="742.29 476.96 742.29 463.61 686.03 443.39 684.64 446.17 684.64 458.9"/><g id="ENG_2-2"><path id="Engine_Mount-3" class="cls-1" d="M511.05,321.93v-47.43c0-5.5,1.29-10.5,4.29-10.5h.05c3,0,4.33,5,4.33,10.5v51.92"/><path id="Engine" class="cls-4" d="M519.72,320.06h15.53c.62,0,1.15-.43,1.26-1.04,.72-3.83,3.13-17.76,3.13-34.18,0-19.33-1.92-31.04-3-32.5-1.67-2.25-4.6-3.94-21.18-3.94h-.15c-16.58,0-19.5,1.69-21.17,3.94-1.08,1.46-3,13.17-3,32.5,0,11.27,1.13,21.38,2.08,27.84"/><path id="Exhaust" class="cls-1" d="M530.05,320.06s-1.97,8.42-3.34,10"/><line id="Engine_Inner_end" class="cls-4" x1="507.45" y1="320.06" x2="511.05" y2="320.06"/><path id="Cowling" class="cls-1" d="M493.6,255.65c0-4.06,43.58-4.06,43.58,0"/></g><path id="Right_Wing_Outliine" class="cls-4" d="M430.28,409.89h96.07l225.04,70.28s3.99,14.18,5.65,14.18-3.56-29.35-3.74-30.59c0,0-2.65-17.49-13.84-23.29s-303.78-157.57-303.78-157.57c-2.57-1.57-5.39-30-5.39-30"/></g><g id="Left_Wing"><g id="Left_Slats"><polyline id="Inner_Slats-2" class="cls-1" points="339.62 283.52 339.62 293.89 275.5 327 270.93 319.15"/><g id="Main_Slats-2"><line id="Outer_Divider-3" class="cls-1" x1="83.92" y1="423.46" x2="80.62" y2="417.87"/><line id="Middle_Divider-3" class="cls-1" x1="138.89" y1="395.69" x2="135.11" y2="389.6"/><line id="Inner_Divider-3" class="cls-1" x1="193.51" y1="368.11" x2="189.89" y2="361.19"/><polyline id="Main_Slats_Outline-2" class="cls-1" points="35.65 441.28 38.94 446.17 255.22 336.94 255.22 327.22"/></g></g><g id="Left_Wing_Flap_Fairings"><path id="Outer-2" class="cls-1" d="M131.14,447.05c.41,8.89-2.83,18.13-2.83,18.13,0,0-2.62-8.94-2.87-16.34"/><path id="Middle-2" class="cls-1" d="M210.96,422.12c.15,6.84-3.02,17.3-3.02,17.3,0,0-3.04-10.89-3.24-15.35"/><path id="Inner-2" class="cls-1" d="M286.05,409.89c0,6.63-3.2,15.28-3.2,15.28,0,0-2.71-9.28-2.71-15.28"/></g><g id="Left_Flaps"><line id="Flap_Divider-2" class="cls-1" x1="249.43" y1="410.11" x2="249.43" y2="398.76"/><polyline id="Flap_Outline-2" class="cls-1" points="346.2 397.92 251.75 397.92 95.67 454.5 95.67 458.13"/></g><g id="Left_Spoilers"><polyline id="Inner_Spoiler-2" class="cls-1" points="282.17 397.92 282.17 384 251.83 384 251.75 397.92"/><g id="Main_Spoilers-2"><line id="Outer_Divider-4" class="cls-1" x1="137.25" y1="439.42" x2="132.29" y2="425.61"/><line id="Middle_Divider-4" class="cls-1" x1="169.65" y1="427.68" x2="164.4" y2="413.98"/><line id="Inner_Divider-4" class="cls-1" x1="206.08" y1="414.47" x2="200.74" y2="400.82"/><polyline id="Main_Spoilers_Outline" class="cls-1" points="242.04 401.44 235.67 388.17 99.92 437.33 104.6 451.26"/></g></g><polyline id="Left_Aileron" class="cls-1" points="35.36 476.96 35.36 463.61 91.61 443.39 93 446.17 93 458.9"/><g id="ENG_1-2"><path id="Engine_Mount-4" class="cls-1" d="M265.58,321.93v-47.43c0-5.5-1.29-10.5-4.29-10.5h-.05c-3,0-4.33,5-4.33,10.5v51.92"/><path id="Engine-2" class="cls-4" d="M256.92,320.06h-15.53c-.62,0-1.15-.43-1.26-1.04-.72-3.83-3.13-17.76-3.13-34.18,0-19.33,1.92-31.04,3-32.5,1.67-2.25,4.6-3.94,21.18-3.94h.15c16.58,0,19.5,1.69,21.17,3.94,1.08,1.46,3,13.17,3,32.5,0,11.27-1.13,21.38-2.08,27.84"/><path id="Exhaust-2" class="cls-1" d="M246.58,320.06s1.97,8.42,3.34,10"/><line id="Engine_Inner_end-2" class="cls-4" x1="269.19" y1="320.06" x2="265.58" y2="320.06"/><path id="Cowling-2" class="cls-1" d="M239.46,255.65c0-4.06,43.58-4.06,43.58,0"/></g><path id="Left_Wing_Outline" class="cls-4" d="M346.2,409.89h-96.07L25.09,480.17s-3.99,14.18-5.65,14.18,3.56-29.35,3.74-30.59c0,0,2.65-17.49,13.84-23.29,11.19-5.8,303.78-157.57,303.78-157.57,2.57-1.57,5.39-30,5.39-30"/></g></g><g id="Fuselage"><path id="APU_Exhaust" class="cls-1" d="M384.38,809.8l.59-.08c2.34-.3,4.71-.28,7.04,.06h.08"/><g id="Cockpit_Windows"><g id="Cockpit_Windows_Left"><path class="cls-1" d="M373.46,47.17l12.18-6.93c.37-.21,.6-.6,.6-1.02v-7c0-.92-1.04-1.47-1.8-.95l-14.67,10c-.6,.41-.75,1.24-.32,1.83l2.72,3.79c.3,.41,.86,.53,1.3,.28Z"/><path class="cls-1" d="M367.17,44.57l2.08,2.55c.21,.26,.33,.58,.33,.92v2.37c0,.31-.08,.61-.24,.88l-3.39,5.74c-.24,.4-.67,.65-1.14,.65h-3.74c-.63,0-1.14-.51-1.14-1.14v-.49c0-.29,.07-.58,.21-.84l5.53-10.49c.31-.58,1.1-.66,1.51-.15Z"/><path class="cls-1" d="M364.33,61.34l-2.56,6.51c-.07,.18-.18,.34-.31,.48l-3.05,3.5c-.54,.62-1.32,.98-2.15,.98h-1.17c-.9,0-1.5-.91-1.16-1.74l4.22-10.07c.19-.43,.61-.71,1.08-.71h4.37c.54,0,.92,.55,.72,1.06Z"/></g><g id="Cockpit_Windows_Right"><path class="cls-1" d="M402.93,47.17l-12.18-6.93c-.37-.21-.6-.6-.6-1.02v-7c0-.92,1.04-1.47,1.8-.95l14.67,10c.6,.41,.75,1.24,.32,1.83l-2.72,3.79c-.3,.41-.86,.53-1.3,.28Z"/><path class="cls-1" d="M409.22,44.57l-2.08,2.55c-.21,.26-.33,.58-.33,.92v2.37c0,.31,.08,.61,.24,.88l3.39,5.74c.24,.4,.67,.65,1.14,.65h3.74c.63,0,1.14-.51,1.14-1.14v-.49c0-.29-.07-.58-.21-.84l-5.53-10.49c-.31-.58-1.1-.66-1.51-.15Z"/><path class="cls-1" d="M412.06,61.34l2.56,6.51c.07,.18,.18,.34,.31,.48l3.05,3.5c.54,.62,1.32,.98,2.15,.98h1.17c.9,0,1.5-.91,1.16-1.74l-4.22-10.07c-.19-.43-.61-.71-1.08-.71h-4.37c-.54,0-.92,.55-.72,1.06Z"/></g></g><path id="Fuselage_Outline" class="cls-4" d="M388.23,3c3.78,0,8.46,3.32,13.37,10.72,11.88,17.9,18.4,36.91,23.48,58.24,4.2,17.63,5.19,34.26,5.19,47.3v478.7c0,34.54-17.99,114-17.99,114l-3.73,19.23c-.1,.51-.16,1.03-.17,1.56l-.61,16.28c-.58,9.82-2.6,20.14-6.01,32.56-3.12,11.37-5.9,24.12-11.09,30.1-.12,.13-.29,.21-.46,.21h-3.95c-.18,0-.35-.07-.46-.21-5.19-5.98-7.97-18.73-11.09-30.1-3.41-12.42-5.43-22.74-6.01-32.56l-.61-16.28c-.01-.52-.07-1.04-.17-1.56l-3.73-19.23s-17.99-79.46-17.99-114V119.26c0-13.04,.99-29.67,5.19-47.3,5.08-21.33,11.6-40.34,23.48-58.24,4.91-7.4,9.51-10.72,13.29-10.72h.06Z"/></g></g></svg>