<?xml version="1.0" encoding="utf-8"?>
<!-- Generator: Adobe Illustrator 25.0.0, SVG Export Plug-In . SVG Version: 6.00 Build 0)  -->
<svg version="1.1" id="Layer_1" xmlns="http://www.w3.org/2000/svg" xmlns:xlink="http://www.w3.org/1999/xlink" x="0px" y="0px"
	 viewBox="0 0 1920 1080" style="enable-background:new 0 0 1920 1080;" xml:space="preserve">
<style type="text/css">
	.st0{fill:none;stroke:#000000;stroke-miterlimit:10;}
</style>
<path class="st0" d="M531.3,736.4c12.6,1.8,37.9,4.2,50.5,5.2c69.4,5.8,81.4,5.7,111.1,6.9c166.1,6.9,342,1.8,342,1.8l-2.6-269.5
	H751.6l-24.5,1.6l6.8-27.1h-4.2l-19.3,27.9c0,0-65.5,2.1-129.1,18.1c-43.2,10.9-85.6,28.1-106,55.5l-25.8,26.6
	c0,0-88.7,30.2-90.5,71.7C358.8,661.1,351.9,711.2,531.3,736.4z"/>
<polygon class="st0" points="456.9,585 478.5,581.8 501,557 501,554.3 476,556.1 451.1,581.8 "/>
<polygon class="st0" points="511.3,553.4 490.1,577 490.1,581.4 508.3,587 527.2,587 528.9,584.4 528.9,554.6 526.8,552.6 "/>
<polygon class="st0" points="537,585.6 539.6,588.7 564.6,588.7 567.5,585.6 567.5,562.8 559,554 539.8,554 537,556.4 "/>
<polygon class="st0" points="566.4,593.2 556.8,593.2 536.8,593.2 532.7,588.2 532.7,553.1 537.5,549.2 562,549.2 571.9,559.5 
	571.9,587.7 "/>
<line class="st0" x1="532.7" y1="517.1" x2="532.7" y2="553.1"/>
<polyline class="st0" points="581.4,741.6 581.4,736.1 581.4,501.3 "/>
<polyline class="st0" points="409,601.8 419.6,623.8 419.6,710.7 "/>
<path class="st0" d="M366.7,677.4l4.6-3.8c0,0,30.8,24.5,48.3,24"/>
<line class="st0" x1="371.3" y1="654.9" x2="419.6" y2="653.6"/>
<path class="st0" d="M372.1,641.3c0,0,21.4-19,43.1-26.7"/>
<path class="st0" d="M419.6,673.7c0,0,86.9,7.6,161.8,7.6h235v68"/>
<line class="st0" x1="816.3" y1="708.3" x2="1034.6" y2="708.3"/>
<polyline class="st0" points="816.3,480.9 816.3,602.8 816.3,681.2 "/>
<line class="st0" x1="1033.5" y1="602.8" x2="816.3" y2="602.8"/>
<line class="st0" x1="816.3" y1="492.9" x2="1032.5" y2="492.9"/>
<path class="st0" d="M581.4,513.2c0,0,30.9-10.2,234.9-11.9"/>
<polygon class="st0" points="795,486.7 799.9,487.5 801.7,482.4 799.7,482.4 "/>
<polygon class="st0" points="651.2,637.9 651.2,644.2 658,649.9 722.4,649.9 729.2,645.5 729.2,637.9 720.9,636.9 719.9,641.1 
	718.1,643.4 713.1,644.2 663.5,644.2 659,640.6 656.9,637.3 "/>
<circle class="st0" cx="703.1" cy="570.9" r="6.1"/>
<polyline class="st0" points="681.2,583.8 678,583.8 676.7,581 676.7,577.9 679.4,575.6 679.4,567.3 677.8,565.6 677.8,561.7 
	684.5,561.7 684.5,565.6 682.9,567.3 682.9,575.6 685.7,577.9 685.7,581 684.3,583.8 681.2,583.8 "/>
<path class="st0" d="M615.4,698.4h22.7c0,0,2.9,0.6,3.7,4.1V727c0,0,0.3,4-4.5,4.1s-22.3,0-22.3,0s-3.5,0.2-3.5-4.3s0-24.7,0-24.7
	S611.5,698.6,615.4,698.4z"/>
<path class="st0" d="M568.7,698.4h6.3c0,0,2,0.2,2.2,2.7c0.1,2.5,0,24.8,0,24.8s-0.3,2.6-3.3,2.7c-3,0.1-5.6,0-5.6,0
	s-2.9-0.6-2.8-2.7c0.1-2.2,0-24.5,0-24.5S565.2,698.4,568.7,698.4z"/>
<polygon class="st0" points="548.1,696.2 544.1,698.9 537,698.9 537,700.4 551.2,700.4 554.5,697.8 553.5,696.2 "/>
<polygon class="st0" points="553.7,721.1 558.5,721.1 559.2,722.7 555.5,726.1 542.8,726.1 542.8,724.7 550,724.7 "/>
<circle class="st0" cx="799" cy="670.9" r="7.5"/>
<line class="st0" x1="795.2" y1="670.9" x2="802.8" y2="670.9"/>
<path class="st0" d="M779.6,702.9v22.5c0,0-0.6,4.7,5.5,4.7s26.2,0,26.2,0s5.1,1,5.1-4.3s0-23.9,0-23.9s-0.4-3.3-5.5-3.5
	s-27.2,0-27.2,0S779.6,698.8,779.6,702.9z"/>
<path class="st0" d="M790.5,708.3c0,0-4.7-0.1-4.7,5s4.7,6.1,4.7,6.1h16.8c0,0,3.3-1.6,3.5-5.5s-4.4-5.5-4.4-5.5L790.5,708.3z"/>
<circle class="st0" cx="793.1" cy="713.9" r="1.6"/>
<circle class="st0" cx="803" cy="713.9" r="1.6"/>
<polygon class="st0" points="630.3,714.8 626.6,714.8 617.2,716.4 617.2,717.7 626.6,718.7 630.3,718.7 632.2,716.7 "/>
<path class="st0" d="M457.1,645.4v21.5c0,0-0.8,4.1,4.9,4.3s17.9,0,17.9,0s4.5-0.6,4.5-5.1s0-20.2,0-20.2s0.8-4.7-4.5-4.6
	c-5.3,0.1-18.4,0-18.4,0S457.1,641.2,457.1,645.4z"/>
<circle class="st0" cx="470.7" cy="656.3" r="9.2"/>
<circle class="st0" cx="470.7" cy="656.3" r="1.8"/>
<ellipse class="st0" cx="757.2" cy="715.9" rx="7.1" ry="4.5"/>
<path class="st0" d="M754.1,569v13.8c0,0,1.2,5.1,6.1,5.2s5,0.1,5,0.1s5.7-0.4,5.9-4.4s0-14.7,0-14.7s-1.7-4.2-5.5-4.2s-6,0-6,0
	S755.7,564.5,754.1,569z"/>
<path class="st0" d="M788.8,569v13.8c0,0,1.2,5.1,6.1,5.2c5,0.1,5,0.1,5,0.1s5.7-0.4,5.9-4.4s0-14.7,0-14.7s-1.7-4.2-5.5-4.2
	c-3.8-0.1-6,0-6,0S790.4,564.5,788.8,569z"/>
<path class="st0" d="M824.1,569v13.8c0,0,1.2,5.1,6.1,5.2c5,0.1,5,0.1,5,0.1s5.7-0.4,5.9-4.4s0-14.7,0-14.7s-1.7-4.2-5.5-4.2
	c-3.8-0.1-6,0-6,0S825.7,564.5,824.1,569z"/>
<path class="st0" d="M860.4,569v13.8c0,0,1.2,5.1,6.1,5.2c5,0.1,5,0.1,5,0.1s5.7-0.4,5.9-4.4s0-14.7,0-14.7s-1.7-4.2-5.5-4.2
	s-6,0-6,0S862,564.5,860.4,569z"/>
<path class="st0" d="M894.4,569v13.8c0,0,1.2,5.1,6.1,5.2s5,0.1,5,0.1s5.7-0.4,5.9-4.4s0-14.7,0-14.7s-1.7-4.2-5.5-4.2s-6,0-6,0
	S895.9,564.5,894.4,569z"/>
<path class="st0" d="M929.4,569v13.8c0,0,1.2,5.1,6.1,5.2c5,0.1,5,0.1,5,0.1s5.7-0.4,5.9-4.4s0-14.7,0-14.7s-1.7-4.2-5.5-4.2
	c-3.8-0.1-6,0-6,0S931,564.5,929.4,569z"/>
<path class="st0" d="M965.6,569v13.8c0,0,1.2,5.1,6.1,5.2s5,0.1,5,0.1s5.7-0.4,5.9-4.4s0-14.7,0-14.7s-1.7-4.2-5.5-4.2s-6,0-6,0
	S967.2,564.5,965.6,569z"/>
<path class="st0" d="M999.7,569v13.8c0,0,1.2,5.1,6.1,5.2c5,0.1,5,0.1,5,0.1s5.7-0.4,5.9-4.4s0-14.7,0-14.7s-1.7-4.2-5.5-4.2
	c-3.8-0.1-6,0-6,0S1001.3,564.5,999.7,569z"/>
<polygon class="st0" points="552.8,721.5 548.8,724.2 541.7,724.2 541.7,725.7 555.9,725.7 559.2,723.1 558.2,721.5 "/>
<path class="st0" d="M720.9,636.9V517.1c0,0-0.1-8.1-9.6-8.1s-45.3,0-45.3,0s-8.8-0.3-9.1,8.1v120.2"/>
<polyline class="st0" points="656.9,527.9 662.3,527.9 665.2,519.2 688.9,519.2 "/>
<polyline class="st0" points="720.9,527.9 715.5,527.9 712.6,519.2 688.9,519.2 "/>
<path class="st0" d="M419.6,681.5c0,0-9.6-1.6-12.2-2.9l-1.4,2.3c0,0,7.1,3.2,13.7,3.7"/>
</svg>
