<?xml version="1.0" encoding="utf-8"?>
<!-- Generator: Adobe Illustrator 26.5.0, SVG Export Plug-In . SVG Version: 6.00 Build 0)  -->
<svg version="1.1" id="Layer_1" xmlns="http://www.w3.org/2000/svg" xmlns:xlink="http://www.w3.org/1999/xlink" x="0px" y="0px"
	 viewBox="0 0 1806 606.6" style="enable-background:new 0 0 1806 606.6;" xml:space="preserve">
<style type="text/css">
	.st0{clip-path:url(#SVGID_00000057143092232583926650000016002301828938799279_);}
	.st1{fill:none;stroke:#000000;stroke-miterlimit:10;}
</style>
<g>
	<defs>
		<rect id="SVGID_1_" width="1806" height="606.6"/>
	</defs>
	<clipPath id="SVGID_00000159453737349815383610000000397080260900262296_">
		<use xlink:href="#SVGID_1_"  style="overflow:visible;"/>
	</clipPath>
	<g id="Untitled" style="clip-path:url(#SVGID_00000159453737349815383610000000397080260900262296_);">
		<path class="st1" d="M794.2,440.4L55.5,384.1c0,0-34-8-43-33l-12-94l8,100c0,0,14,28,44,34s233,24,233,24v15l3,3h12l2-4v-10
			l166,16v11l3,4h12.4l3.6-4v-9l96,11c5.1-1.8,10.5-2.8,16-3c0,0,0-9,9-9s11,9,11,9s18-1,38,16h8L803,488.2c0,0,0.5-9.1-4.5-16.1
			c-2.4-3.5-5.1-6.9-8-10c-2.6-3-3.7-7.1-3-11l6-10L794.2,440.4z"/>
		<path class="st1" d="M1011.9,440.3l204.2-15.7l534.4-40.5c0,0,34-8,43-33l12-94l-8,100c0,0-14,28-44,34s-233,24-233,24v15l-3,3
			h-12l-2-4v-10l-166,16v11l-3,4h-12.4l-3.6-4v-9l-96,11c-5.1-1.8-10.5-2.8-16-3c0,0,0-9-9-9s-11,9-11,9s-18-1-38,16h-8L1003,488.2
			c0,0-0.5-9.1,4.5-16.1c2.4-3.5,5.1-6.9,8-10c2.6-3,3.7-7.1,3-11l-6-10L1011.9,440.3z"/>
		<path class="st1" d="M815.5,353.1l-231-20l-4,2l4,4l224,29L815.5,353.1z"/>
		<path class="st1" d="M990.8,353.5l231-20l4,2l-4,4l-224,29L990.8,353.5z"/>
		<path class="st1" d="M802.5,407.1c0-58.5,45-106,100.5-106s100.5,47.5,100.5,106s-45,106-100.5,106S802.5,465.6,802.5,407.1z"/>
		<path class="st1" d="M885.7,302.6l2.8-6.6l10-293l5.3-2.5l4.7,2.5l9,293l2.8,6.6"/>
		<path class="st1" d="M698.2,467.5v16.4l2.3,0.2v37.8l2,4.2v18.4l3-5.4V469L698.2,467.5z"/>
		<path class="st1" d="M1108.1,467.5v16.2l-2.3,0.2v37.8l-2,4.2v18.4l-3-5.4v-69.9L1108.1,467.5z"/>
		<path class="st1" d="M708.2,469.5v101.8h-2.7v-10.7l-3.6,0.2v-10.2l-3.6-4.4l-15.7-0.1l-3,4V600l2,5.1h16.7l3.6-5.1v-9.6l3.6,0.2
			V580l12,0.1v10.6l4-0.6v10.3l4,4.7h16.7l2.3-5v-48.9l-3-5.1h-17l-3,5v9h-2h-1v11h-3v-32h4v-4l-2-3v-4l52.5-46.4l-6.5-1.3
			l-46.9,40.7l0.2-49.9L708.2,469.5z"/>
		<path class="st1" d="M1097.8,469.5V571h2.7v-10.7l3.6,0.2v-10.2l3.6-4.4l15.7-0.1l3,4v49.9l-2,5.1h-16.7l-3.6-5.1v-9.6l-3.6,0.1
			v-10.6l-12,0.1v10.6l-4-0.6V600l-4,4.7h-16.7l-2.3-5v-48.9l3-5.1h17l3,5v9h2h1v11h3v-32h-4v-4l2-3v-4l-52.5-46.1l6.6-1.3
			l46.9,40.4l-0.1-49.6L1097.8,469.5z"/>
		<path class="st1" d="M716.7,474l31.4,19.8l-2.1,1.9l-29.2-18.2V474z"/>
		<path class="st1" d="M1089.4,473.4l-31.3,19.7l2.1,1.9l29.1-18.3L1089.4,473.4z"/>
		<path class="st1" d="M1049,479.1l17.3,8.8l-2.1,1.4l-18.3-9.5L1049,479.1z"/>
		<path class="st1" d="M756.5,479l-17.3,8.8l2.1,1.4l18.3-9.5L756.5,479z"/>
		<path class="st1" d="M903,513.1h-4.3l-0.2,6l-12.8-7.6l-4.5-0.9v6.1l17.3,21.4v9h-2l0-2h-3l-2,2v3l3,2h1.8l0.2-3h2v28h1.8l0.2,5
			l-2,1v2h-4.1l0.1-13l-3-3h-3l-3,3v32l2,2h4.6l2.4-3v-13h4l4,1h1l4-1h4v13l2,3h5l2-3v-32.3l-3-2.7h-3l-3,3v14h-4v-2l-2-1v-5h2v-14
			l4.5-4.8l-1.5-5.2l2-1l2-3v-2l-2-2h-3v2h-2v-9l17-22v-5.5l-2.7,0.7l-14.3,7.9l0-6.1L903,513.1z"/>
		<path class="st1" d="M803,417.6c0,0,1.5,15.5-9.5,23.5"/>
		<path class="st1" d="M803,488.2c0,0-3.5,29.9,31.5,32.9l51.2,1.2"/>
		<path class="st1" d="M1003,488.2c0,0,2.5,28.9-24.5,31.9l-58.8,2.2"/>
		<path class="st1" d="M865.1,355.3l-9.6,28.8"/>
		<path class="st1" d="M861.7,355l-11.3,30.1"/>
		<path class="st1" d="M940.7,355l9.9,28.9"/>
		<path class="st1" d="M944.4,354.7l11.6,30.5"/>
		<path class="st1" d="M854.4,354.4l-26,37.1"/>
		<path class="st1" d="M851.8,354l-26.2,37.8"/>
		<path class="st1" d="M951.6,354l23.9,37.1l0.4,0.5"/>
		<path class="st1" d="M954.2,353.8l25.3,38.3"/>
		<path class="st1" d="M905.7,358.1l-0.2,22l7,5l1.1,0.7"/>
		<path class="st1" d="M899.8,358.1v21.8l-7.5,5.8"/>
		<path class="st1" d="M583.5,448.1c0,0-13,5-21,14l-10-10h-2v1.8l10,10.2c0,0-20,16-18,49c0,0-1,59,63,66c4.2,0.2,8.3,0,12.5-0.6
			c13.3-1.8,34.4-7.9,48.5-28.4c13-18.7,16-42.6,8-64c0,0-8-16-13-21l-5-5l0,0c0,0-18-15-37-15c0,0-2-9-11-9s-9,9-9,9
			C594,445.3,588.7,446.3,583.5,448.1z"/>
		<path class="st1" d="M1222.5,448.1c0,0,13,5,21,14l10-10h2v1.8l-10,10.2c0,0,20,16,18,49c0,0,1,59-63,66c0,0-39,3-61-29
			s-8-64-8-64s8-16,13-21l5-5l0,0c0,0,18-15,37-15c0,0,2-9,11-9s9,9,9,9C1211.9,445.3,1217.3,446.3,1222.5,448.1z"/>
		<path class="st1" d="M547.5,511.6c0-34.5,28.4-62.5,63.5-62.5s63.5,28,63.5,62.5s-28.4,62.5-63.5,62.5S547.5,546.1,547.5,511.6z"
			/>
		<path class="st1" d="M1131.5,510.6c0-34.5,28.4-62.5,63.5-62.5s63.5,28,63.5,62.5s-28.4,62.5-63.5,62.5S1131.5,545.1,1131.5,510.6
			z"/>
		<path class="st1" d="M554.5,512.1c0-31.5,25.5-57,57-57s57,25.5,57,57s-25.5,57-57,57S554.5,543.5,554.5,512.1z"/>
		<path class="st1" d="M1138.5,511.1c0-31.5,25.5-57,57-57s57,25.5,57,57s-25.5,57-57,57S1138.5,542.5,1138.5,511.1z"/>
		<path class="st1" d="M606.5,510.1c0-2.8,2.2-5,5-5s5,2.2,5,5s-2.2,5-5,5S606.5,512.8,606.5,510.1z"/>
		<path class="st1" d="M1189.5,510.1c0-2.8,2.2-5,5-5s5,2.2,5,5s-2.2,5-5,5S1189.5,512.8,1189.5,510.1z"/>
		<path class="st1" d="M596.5,510.1c0-7.7,6.5-14,14.5-14s14.5,6.3,14.5,14s-6.5,14-14.5,14S596.5,517.8,596.5,510.1z"/>
		<path class="st1" d="M1180.5,510.1c0-7.7,6.5-14,14.5-14s14.5,6.3,14.5,14s-6.5,14-14.5,14S1180.5,517.8,1180.5,510.1z"/>
		<path class="st1" d="M589.3,424.6v21.8"/>
		<path class="st1" d="M766.3,438.2c0,0-21.8,8.8-3.8,25.8l-130-17c-12-14,3.6-18.9,3.6-18.9L766.3,438.2z"/>
		<path class="st1" d="M1038.8,438.2c0,0,21.9,9,3.9,26l130-17c12-14-3.6-18.9-3.6-18.9L1038.8,438.2z"/>
		<path class="st1" d="M1216.2,446.2l-0.1-21.6"/>
		<path class="st1" d="M837.9,326.3l6.6,0.8c0,0-45,46-36,100l-4,1.1"/>
		<path class="st1" d="M967.7,326.3l-6.6,0.8c0,0,45,46,36,100l4,1.1"/>
		<path class="st1" d="M701.9,560.8v29.6"/>
		<path class="st1" d="M721.5,560.1v30"/>
		<path class="st1" d="M911.5,585.1v5"/>
		<path class="st1" d="M894.4,585.1l0.1,5"/>
		<path class="st1" d="M1104.2,560.5v29.6"/>
		<path class="st1" d="M1084.6,559.7v30"/>
		<path class="st1" d="M881.2,510.6l0.3-7.5c0,0,21.3,6,42.2,0l0.8,7.5"/>
		<path class="st1" d="M903,513.1v-7.3"/>
		<path class="st1" d="M844.5,431.1h-6.9c0,0-0.2,15.1,6.9,22l3.8,0.1C848.3,453.1,843.5,442.1,844.5,431.1z"/>
		<path class="st1" d="M961.5,431.1h6.9c0,0,0.2,15.1-6.9,22l-3.8,0.1C957.7,453.1,962.5,442.1,961.5,431.1z"/>
		<path class="st1" d="M873.5,437.1c0-16,13-29,29-29s29,13,29,29s-13,29-29,29S873.5,453.1,873.5,437.1z"/>
		<path class="st1" d="M903.5,358.6l-53.1-4.6c0,0-15.2-1.4-30.7,35.5c0,0-0.7,5.8,17.6,0.2l16.7-5.6l49.5,2.1"/>
		<path class="st1" d="M902.6,358.6l53.1-4.6c0,0,15.2-1.4,30.7,35.5c0,0,0.7,5.8-17.6,0.2l-16.7-5.6l-49.5,2.1"/>
		<path class="st1" d="M611.5,579.1c0,0,50,1,60-19c0,0,10.4-27.8,7.4-49.9"/>
		<path class="st1" d="M1195.6,579.2c0,0,48,0,60-19c0,0,11.1-28,8.1-50.1"/>
		<path class="st1" d="M1003.1,417.6c0,0-1.5,15.5,9.5,23.5"/>
	</g>
</g>
</svg>
