<svg id="Layer_1" data-name="Layer 1" xmlns="http://www.w3.org/2000/svg" viewBox="0 0 1459.26 427.98"><defs><style>.cls-1{fill:none;stroke:#000;stroke-miterlimit:10;}</style></defs><path class="cls-1" d="M689.52,593.86s7.87.94,8.33-5.06.58-10.63.58-10.63,32.61,3.53,59.61,12c0,0-3.91,18.26,6.46,19.37,8,.86,9.33-6.32,9.33-6.32l1.3-9.65,39.78,11.34-.81,15H816L815.17,643,819,630.1l.43-17,.19-7.51-4.61-.64" transform="translate(-218.81 -252.33)"/><rect class="cls-1" x="600.61" y="360.75" width="4.07" height="4.06"/><polygon class="cls-1" points="600.28 373.71 600.18 377.5 604.68 377.5 604.68 373.71 600.28 373.71"/><path class="cls-1" d="M823.49,607.33v44h-1.22v4.7H820V651s.1-3-4.55-3c-4,0-4.84,2.73-4.84,2.72v19.82s-.49,3,4.82,3c2.44,0,4.6-.57,4.63-2.89,0-.65,0-14.41,0-14.41" transform="translate(-218.81 -252.33)"/><polyline class="cls-1" points="601.4 414.57 605.39 414.57 605.39 412.01 613.33 412 613.33 414.55 616.79 414.57"/><path class="cls-1" d="M819.61,605.57l12.54,4.69v41.12h1.22v4.7h2.3V651s-.1-3,4.55-3c4,0,4.84,2.73,4.84,2.72v19.82s.49,3-4.83,3c-2.43,0-4.59-.57-4.63-2.89,0-.65,0-14.41,0-14.41" transform="translate(-218.81 -252.33)"/><path class="cls-1" d="M832.18,610.27l14.3,6.21-14.3,14.9,0,5L850.24,618l12.5,4.92,14.94,5.89s5.29-5.77,4.9-22.5-6.36-32.67-6.36-32.67L718.52,557.3s-106-11.87-234-9.91S226,553.52,226,553.52l.65-15.65s-3.19,15.13-6.78,18.59c0,0,4.68,7.22,5.56,22.58l.64-18.88,222,1.61s-28.66,7.36-29.68,37.66c-1.11,33.14,26.9,37.77,26.9,37.77s13,2.37,25.14-1.37c15.66-4.83,21.43-19.47,21.43-19.47s6.06-12.35.49-28.38-17.71-21.41-17.71-21.41l2.54-4.7,54.1,2v7s2.09,7.63,8.48,7.7a13.44,13.44,0,0,0,6.2-1.23,4.93,4.93,0,0,0,2.57-3.51l1.63-8.56,58.11,3.22s-3.72,15.66,7.39,15.56,10.25-8.09,10.25-8.09l0-6.06,24.57,1.43-.78,4.79S618,581.83,618,616.46s35.61,37.17,35.61,37.17,22.59,1.57,34.33-13.89,5.28-37.57,5.28-37.57S691,592.93,681,584.8a46.78,46.78,0,0,0-8.71-5.52l-4.14-1.76,4.4-3.52,8.71,1.37-.23,9.16" transform="translate(-218.81 -252.33)"/><path class="cls-1" d="M862.74,622.89c3.87,16,15.11,15.41,15.11,15.41h13" transform="translate(-218.81 -252.33)"/><path class="cls-1" d="M889.65,638.31v13.07h-1.22v4.7h-2.3V651s.1-3-4.55-3c-4,0-4.84,2.73-4.84,2.72v19.82s-.49,3,4.83,3c2.43,0,4.59-.57,4.63-2.89,0-.65,0-14.41,0-14.41" transform="translate(-218.81 -252.33)"/><path class="cls-1" d="M902.57,638.31v13.07h1.22v4.7h2.3V651s-.1-3,4.55-3c4,0,4.84,2.73,4.84,2.72v19.82s.49,3-4.83,3c-2.44,0-4.6-.57-4.63-2.89,0-.65,0-14.41,0-14.41" transform="translate(-218.81 -252.33)"/><polyline class="cls-1" points="671.81 385.98 721.64 385.98 726.09 385.98"/><polyline class="cls-1" points="667.37 412.74 670.2 412.74 670.2 409.69 673.11 409.69 673.11 412.74 677.26 412.74"/><polyline class="cls-1" points="687.15 412.74 684.33 412.74 684.33 409.69 681.42 409.69 681.42 412.74 677.26 412.74"/><path class="cls-1" d="M933.28,621.93S899,624.49,882.6,579.28c-14.4-39.78-1.79-74.54-1.79-74.54s13.6-50.25,67.86-50.22" transform="translate(-218.81 -252.33)"/><path class="cls-1" d="M876.22,573.61s2.45-6.39,1.52-12.16" transform="translate(-218.81 -252.33)"/><path class="cls-1" d="M876.76,523.18,731.3,507.74,690.61,506s2.87,4.28,17.35,5.64S875.7,535.85,875.7,535.85" transform="translate(-218.81 -252.33)"/><polyline class="cls-1" points="721.97 202.45 726.84 5.39 729.71 0.24"/><polyline class="cls-1" points="737.45 202.45 732.58 5.39 729.71 0.24"/><path class="cls-1" d="M913.59,622.89" transform="translate(-218.81 -252.33)"/><rect class="cls-1" x="903.81" y="614.43" width="4.33" height="14.15" transform="translate(-94.83 1140.89) rotate(-79.07)"/><line class="cls-1" x1="680.64" y1="366.99" x2="694.28" y2="369.63"/><polyline class="cls-1" points="660.92 372.87 608.69 350.72 518.75 324.67 453.21 314.95 453.73 321.67"/><polyline class="cls-1" points="431.69 318.93 432.4 312.8 348.67 307.32 254.56 304.84 258.37 309.54"/><polyline class="cls-1" points="8.47 307.83 8.47 305.72 231.53 303.47 229.25 309.44"/><path class="cls-1" d="M474.64,566.57s-9.88-5.81-26.57-4.8" transform="translate(-218.81 -252.33)"/><path class="cls-1" d="M803.12,566.05s-7.26,14.8-5.33,28.4" transform="translate(-218.81 -252.33)"/><path class="cls-1" d="M746.89,560.24s-19.3,6.59-9.32,16.76" transform="translate(-218.81 -252.33)"/><path class="cls-1" d="M672,567.28s-3.58-9.17,8-13.48" transform="translate(-218.81 -252.33)"/><path class="cls-1" d="M645.54,551.36s-8.12,6.79-4.59,12.86" transform="translate(-218.81 -252.33)"/><path class="cls-1" d="M590.66,548.64s-11.12,6.6-4.09,12.26" transform="translate(-218.81 -252.33)"/><path class="cls-1" d="M529.72,558.66s-7.18-5.7,3.58-11.39" transform="translate(-218.81 -252.33)"/><path class="cls-1" d="M473.37,557.17s-6.07-5.79,2.35-9.64" transform="translate(-218.81 -252.33)"/><path class="cls-1" d="M443.58,555.87s-2.1-3.63,3-7.84" transform="translate(-218.81 -252.33)"/><path class="cls-1" d="M376.42,556.55s-3.19-3.29,1-7.09" transform="translate(-218.81 -252.33)"/><path class="cls-1" d="M312.89,557.19s-2.94-2.73.78-6.17" transform="translate(-218.81 -252.33)"/><polyline class="cls-1" points="7.19 301.19 1.06 304.13 7.25 307.83"/><path class="cls-1" d="M531.28,570.8s1.71-8.39,7.05-8.39,9.3,13.42,9.3,13.42" transform="translate(-218.81 -252.33)"/><path class="cls-1" d="M623.16,581.91s1.06-13.84-8.33-14-6.47,10.92-6.47,10.92" transform="translate(-218.81 -252.33)"/><path class="cls-1" d="M773.83,603.22s.58-12.65-7.9-12.46-8.29,10.89-8.29,10.89" transform="translate(-218.81 -252.33)"/><path class="cls-1" d="M697.79,589.3s-1.47-13.15-8.27-13.78S681,584.8,681,584.8" transform="translate(-218.81 -252.33)"/><path class="cls-1" d="M842.66,582a12.61,12.61,0,0,0-2.54,9.74l-3.42.19s-.69-7.58,3-10.42Z" transform="translate(-218.81 -252.33)"/><circle class="cls-1" cx="235.39" cy="345.96" r="27.83"/><circle class="cls-1" cx="235.39" cy="346.66" r="33.53"/><circle class="cls-1" cx="437.04" cy="362.41" r="27.83"/><circle class="cls-1" cx="437.04" cy="363.11" r="33.53"/><circle class="cls-1" cx="236.28" cy="345.86" r="5.6"/><circle class="cls-1" cx="437.73" cy="361.35" r="5.6"/><polygon class="cls-1" points="703.11 269.04 700.04 268.88 688.51 280.97 689.16 282.73 693.37 282.73 703.11 269.04"/><polygon class="cls-1" points="696.94 282.06 705.8 269.11 710.56 269.35 705.93 278.14 696.94 282.06"/><polygon class="cls-1" points="725.39 279.85 715.46 279.85 710.56 277.16 713.95 269.58 728.28 269.58 728.08 278.53 725.39 279.85"/><polygon class="cls-1" points="756.15 269.04 759.22 268.88 770.74 280.97 770.09 282.73 765.88 282.73 756.15 269.04"/><polygon class="cls-1" points="762.32 282.06 753.45 269.11 748.7 269.35 753.33 278.14 762.32 282.06"/><polygon class="cls-1" points="733.86 279.85 743.79 279.85 748.7 277.16 745.31 269.58 730.98 269.58 731.17 278.53 733.86 279.85"/><path class="cls-1" d="M1207.37,593.86s-7.88.94-8.33-5.06-.59-10.63-.59-10.63-32.61,3.53-59.61,12c0,0,3.91,18.26-6.46,19.37-8,.86-9.32-6.32-9.32-6.32l-1.31-9.65L1082,604.91l.82,15h-1.86l.78,23.14-3.82-12.92-.43-17-.19-7.51,4.61-.64" transform="translate(-218.81 -252.33)"/><rect class="cls-1" x="854.58" y="360.75" width="4.07" height="4.06"/><polygon class="cls-1" points="858.98 373.71 859.07 377.5 854.58 377.5 854.58 373.71 858.98 373.71"/><path class="cls-1" d="M1073.39,607.33v44h1.23v4.7h2.3V651s-.1-3,4.55-3c4,0,4.84,2.73,4.84,2.72v19.82s.49,3-4.83,3c-2.44,0-4.6-.57-4.63-2.89,0-.65,0-14.41,0-14.41" transform="translate(-218.81 -252.33)"/><polyline class="cls-1" points="857.86 414.57 853.86 414.57 853.86 412.01 845.92 412 845.92 414.55 842.46 414.57"/><path class="cls-1" d="M1077.27,605.57l-12.53,4.69v41.12h-1.23v4.7h-2.29V651s.09-3-4.55-3c-4,0-4.85,2.73-4.85,2.72v19.82s-.49,3,4.83,3c2.44,0,4.6-.57,4.63-2.89,0-.65,0-14.41,0-14.41" transform="translate(-218.81 -252.33)"/><path class="cls-1" d="M1064.7,610.27l-14.29,6.21,14.29,14.9,0,5L1046.64,618l-12.49,4.92-15,5.89s-5.28-5.77-4.89-22.5,6.36-32.67,6.36-32.67l157.69-16.31s106.05-11.87,234-9.91,258.52,6.13,258.52,6.13l-.65-15.65s3.2,15.13,6.78,18.59c0,0-4.68,7.22-5.56,22.58l-.63-18.88-222,1.61s28.66,7.36,29.67,37.66c1.11,33.14-26.9,37.77-26.9,37.77s-13,2.37-25.14-1.37C1410.8,631,1405,616.36,1405,616.36S1399,604,1404.54,588s17.7-21.41,17.7-21.41l-2.54-4.7-54.1,2v7s-2.09,7.63-8.48,7.7a13.39,13.39,0,0,1-6.19-1.23,5,5,0,0,1-2.58-3.51l-1.63-8.56-58.11,3.22s3.72,15.66-7.38,15.56-10.26-8.09-10.26-8.09v-6.06l-24.58,1.43.79,4.79s31.76,5.78,31.76,40.41-35.61,37.17-35.61,37.17-22.6,1.57-34.34-13.89-5.28-37.57-5.28-37.57,2.14-9.24,12.2-17.37a46.69,46.69,0,0,1,8.7-5.52l4.14-1.76-4.4-3.52-8.71,1.37.23,9.16" transform="translate(-218.81 -252.33)"/><path class="cls-1" d="M1034.15,622.89c-3.87,16-15.11,15.41-15.11,15.41h-13" transform="translate(-218.81 -252.33)"/><path class="cls-1" d="M1007.23,638.31v13.07h1.22v4.7h2.3V651s-.09-3,4.55-3c4,0,4.84,2.73,4.84,2.72v19.82s.49,3-4.82,3c-2.44,0-4.6-.57-4.63-2.89,0-.65,0-14.41,0-14.41" transform="translate(-218.81 -252.33)"/><path class="cls-1" d="M994.32,638.31v13.07H993.1v4.7h-2.3V651s.09-3-4.55-3c-4,0-4.84,2.73-4.84,2.72v19.82s-.49,3,4.82,3c2.44,0,4.6-.57,4.63-2.89,0-.65,0-14.41,0-14.41" transform="translate(-218.81 -252.33)"/><polyline class="cls-1" points="787.45 385.98 737.61 385.98 733.17 385.98"/><polyline class="cls-1" points="791.88 412.74 789.06 412.74 789.06 409.69 786.15 409.69 786.15 412.74 781.99 412.74"/><polyline class="cls-1" points="772.11 412.74 774.93 412.74 774.93 409.69 777.84 409.69 777.84 412.74 781.99 412.74"/><path class="cls-1" d="M948.21,619l15.39-.78v3.71L952,635.83l-.1,20.09h-2l0,9.06h5l0-6.91a3.89,3.89,0,0,1,3.93-3.07c4.06-.07,4.43,3.18,4.43,3.18l-.05,17.93s0,3.71-4.2,3.71a3.69,3.69,0,0,1-4.05-3.81v-11" transform="translate(-218.81 -252.33)"/><polyline class="cls-1" points="736.1 416.74 730.98 416.74 730.98 418.94 729.4 418.94"/><path class="cls-1" d="M941.51,665.06v11a3.69,3.69,0,0,1-4,3.81c-4.21,0-4.2-3.71-4.2-3.71l0-17.93s.37-3.25,4.43-3.18a3.89,3.89,0,0,1,3.93,3.07l0,6.91h5l.05-9.06h-2.06l-.09-20.09-11.61-13.9v-3.71l15.39.78V603.64s12.13,0,22.3-3.36L977,613.91s-6.65,4.37-13.37,4.31" transform="translate(-218.81 -252.33)"/><polyline class="cls-1" points="722.69 416.74 727.82 416.74 727.82 418.94 729.4 418.94"/><polyline class="cls-1" points="733.13 366.48 733.13 370.7 731.13 370.7 731.13 383.46 733.18 383.5"/><polyline class="cls-1" points="725.5 366.48 725.5 370.7 727.5 370.7 727.5 383.46 725.45 383.5"/><polyline class="cls-1" points="731.13 366.48 731.13 368.72 727.5 368.72 727.5 366.48"/><path class="cls-1" d="M963.6,621.93s34.32,2.56,50.69-42.65c14.4-39.78,1.78-74.54,1.78-74.54s-13.6-50.25-67.86-50.22" transform="translate(-218.81 -252.33)"/><path class="cls-1" d="M1020.67,573.61s-2.46-6.39-1.52-12.16" transform="translate(-218.81 -252.33)"/><path class="cls-1" d="M1020.13,523.18l145.45-15.44,40.69-1.7s-2.86,4.28-17.34,5.64-167.74,24.17-167.74,24.17" transform="translate(-218.81 -252.33)"/><polyline class="cls-1" points="737.28 202.45 732.41 5.39 729.54 0.24"/><polyline class="cls-1" points="721.8 202.45 726.67 5.39 729.54 0.24"/><path class="cls-1" d="M983.3,622.89" transform="translate(-218.81 -252.33)"/><rect class="cls-1" x="983.83" y="619.34" width="14.15" height="4.33" transform="translate(-318.67 -53.2) rotate(-10.93)"/><line class="cls-1" x1="778.62" y1="366.99" x2="764.98" y2="369.63"/><polyline class="cls-1" points="798.34 372.87 850.57 350.72 940.5 324.67 1006.05 314.95 1005.53 321.67"/><polyline class="cls-1" points="1027.57 318.93 1026.85 312.8 1110.59 307.32 1204.7 304.84 1200.89 309.54"/><polyline class="cls-1" points="1450.78 307.83 1450.78 305.72 1227.72 303.47 1230.01 309.44"/><path class="cls-1" d="M1422.24,566.57s9.88-5.81,26.58-4.8" transform="translate(-218.81 -252.33)"/><path class="cls-1" d="M1093.76,566.05s7.26,14.8,5.33,28.4" transform="translate(-218.81 -252.33)"/><path class="cls-1" d="M1150,560.24s19.29,6.59,9.32,16.76" transform="translate(-218.81 -252.33)"/><path class="cls-1" d="M1224.86,567.28s3.58-9.17-8-13.48" transform="translate(-218.81 -252.33)"/><path class="cls-1" d="M1251.34,551.36s8.12,6.79,4.6,12.86" transform="translate(-218.81 -252.33)"/><path class="cls-1" d="M1306.22,548.64s11.13,6.6,4.1,12.26" transform="translate(-218.81 -252.33)"/><path class="cls-1" d="M1367.17,558.66s7.17-5.7-3.59-11.39" transform="translate(-218.81 -252.33)"/><path class="cls-1" d="M1423.51,557.17s6.07-5.79-2.34-9.64" transform="translate(-218.81 -252.33)"/><path class="cls-1" d="M1453.3,555.87s2.1-3.63-3-7.84" transform="translate(-218.81 -252.33)"/><path class="cls-1" d="M1520.46,556.55s3.19-3.29-1-7.09" transform="translate(-218.81 -252.33)"/><path class="cls-1" d="M1584,557.19s2.93-2.73-.79-6.17" transform="translate(-218.81 -252.33)"/><polyline class="cls-1" points="1452.07 301.19 1458.2 304.13 1452.01 307.83"/><path class="cls-1" d="M1365.6,570.8s-1.71-8.39-7-8.39-9.31,13.42-9.31,13.42" transform="translate(-218.81 -252.33)"/><path class="cls-1" d="M1273.72,581.91s-1-13.84,8.34-14,6.46,10.92,6.46,10.92" transform="translate(-218.81 -252.33)"/><path class="cls-1" d="M1123.06,603.22s-.59-12.65,7.89-12.46,8.29,10.89,8.29,10.89" transform="translate(-218.81 -252.33)"/><path class="cls-1" d="M1199.09,589.3s1.48-13.15,8.28-13.78,8.53,9.28,8.53,9.28" transform="translate(-218.81 -252.33)"/><path class="cls-1" d="M1054.22,582a12.61,12.61,0,0,1,2.54,9.74l3.43.19s.68-7.58-3-10.42Z" transform="translate(-218.81 -252.33)"/><circle class="cls-1" cx="1223.87" cy="345.96" r="27.83"/><circle class="cls-1" cx="1223.87" cy="346.66" r="33.53"/><circle class="cls-1" cx="1022.21" cy="362.41" r="27.83"/><circle class="cls-1" cx="1022.21" cy="363.11" r="33.53"/><circle class="cls-1" cx="1222.98" cy="345.86" r="5.6"/><circle class="cls-1" cx="1021.53" cy="361.35" r="5.6"/><path class="cls-1" d="M948.21,603.64a80.91,80.91,0,0,1-21.86-3.36l-6.18,13.63s3.77,3.62,12.65,4.31" transform="translate(-218.81 -252.33)"/><ellipse class="cls-1" cx="721.75" cy="289.28" rx="1.25" ry="2.14"/><ellipse class="cls-1" cx="729.86" cy="287.45" rx="1.25" ry="2.14"/><ellipse class="cls-1" cx="737.69" cy="289.28" rx="1.25" ry="2.14"/></svg>