<svg width="166" height="41" viewBox="0 0 166 41" fill="none" xmlns="http://www.w3.org/2000/svg">
<path d="M1.04 40H6.682L9.412 31.55H24.778L27.56 40H33.202L21.034 2.56H13.208L1.04 40ZM11.076 26.454L17.056 7.994L23.114 26.454H11.076ZM48.3446 40.702C50.6846 40.702 52.7992 40.1733 54.6886 39.116C56.5779 38.0587 58.0772 36.6027 59.1866 34.748C60.2959 32.876 60.8506 30.7527 60.8506 28.378C60.8506 26.35 60.4519 24.4953 59.6546 22.814C58.8746 21.1327 57.7479 19.7547 56.2746 18.68C54.8186 17.588 53.0766 16.9033 51.0486 16.626L60.3046 7.734V2.56H37.7886V7.734H53.6486L42.2086 17.848L44.7566 22.138C45.9179 21.514 47.0966 21.202 48.2926 21.202C50.3726 21.202 52.0539 21.878 53.3366 23.23C54.6366 24.582 55.2866 26.298 55.2866 28.378C55.2866 30.4407 54.6452 32.148 53.3626 33.5C52.0799 34.8347 50.4072 35.5193 48.3446 35.554C46.8192 35.5713 45.4326 35.1553 44.1846 34.306C42.9366 33.4567 42.0612 32.2173 41.5586 30.588L36.3066 32.044C36.8439 33.812 37.7019 35.346 38.8806 36.646C40.0766 37.946 41.4892 38.9513 43.1186 39.662C44.7479 40.3553 46.4899 40.702 48.3446 40.702ZM66.5844 39.974H91.9084V34.8H74.9824L85.8244 25.128C87.1764 23.932 88.303 22.8227 89.2044 21.8C90.1057 20.7773 90.7817 19.668 91.2324 18.472C91.683 17.2587 91.9084 15.8027 91.9084 14.104C91.9084 11.7293 91.3624 9.61467 90.2704 7.76C89.1957 5.90533 87.7224 4.44933 85.8504 3.392C83.9784 2.31733 81.8637 1.78 79.5064 1.78C77.0277 1.78 74.8177 2.3 72.8764 3.34C70.9524 4.36266 69.4444 5.79267 68.3524 7.63C67.2604 9.45 66.7144 11.5733 66.7144 14H72.2784C72.261 12.7347 72.5557 11.5733 73.1624 10.516C73.7864 9.44133 74.6357 8.58333 75.7104 7.942C76.785 7.28333 78.0157 6.954 79.4024 6.954C81.413 6.954 83.0684 7.63 84.3684 8.982C85.6684 10.334 86.3184 12.0153 86.3184 14.026C86.3184 15.0833 86.0757 16.1407 85.5904 17.198C85.1224 18.238 84.2297 19.3473 82.9124 20.526L66.6104 35.138L66.5844 39.974ZM98.1439 40H103.656V12.154L122.09 40H127.602V2.56H122.09V30.38L103.656 2.56H98.1439V40Z" fill="#FAFAFA"/>
<path d="M131.52 40L144.286 21.046L131.858 2.56H138.514L147.64 16.444L156.714 2.56H163.396L150.968 21.046L163.708 40H157.052L147.64 25.674L138.202 40H131.52Z" fill="#FAFAFA"/>
</svg>
