<svg width="166" height="41" viewBox="0 0 166 41" fill="none" xmlns="http://www.w3.org/2000/svg">
<path d="M1.04 40H6.682L9.412 31.55H24.778L27.56 40H33.202L21.034 2.56H13.208L1.04 40ZM17.056 8.02L23.114 26.454H11.076L17.056 8.02ZM60.3046 7.734V2.56H37.7886V7.734H53.6486L42.2086 17.848L44.7566 22.138C45.8226 21.566 47.0966 21.202 48.2926 21.202C52.4526 21.202 55.2866 24.218 55.2866 28.378C55.2866 32.512 52.4526 35.502 48.3446 35.554C45.2766 35.58 42.5466 33.838 41.5586 30.588L36.3066 32.044C37.8926 37.374 42.7806 40.702 48.3446 40.702C55.3386 40.702 60.8506 35.528 60.8506 28.378C60.8506 22.294 57.1066 17.432 51.0486 16.626L60.3046 7.734ZM85.8244 25.128C89.8804 21.566 91.9084 19.226 91.9084 14.104C91.9084 7.006 86.5784 1.78 79.5064 1.78C72.0444 1.78 66.7144 6.746 66.7144 14H72.2784C72.2264 10.23 75.2424 6.954 79.4024 6.954C83.4324 6.954 86.3184 10.022 86.3184 14.026C86.3184 16.158 85.5384 18.186 82.9124 20.526L66.6104 35.138L66.5844 39.974H91.9084V34.8H74.9824L85.8244 25.128ZM103.656 12.154L122.09 40H127.602V2.56H122.09V30.38L103.656 2.56H98.1439V40H103.656V12.154Z" fill="#171F2C"/>
<path d="M131.52 40L144.286 21.046L131.858 2.56H138.514L147.64 16.444L156.714 2.56H163.396L150.968 21.046L163.708 40H157.052L147.64 25.674L138.202 40H131.52Z" fill="#171F2C"/>
</svg>
