<svg width="164" height="41" viewBox="0 0 164 41" fill="none" xmlns="http://www.w3.org/2000/svg">
<path d="M1.04004 40L13.208 2.56003H21.034L33.202 40H27.56L16.354 5.83603H17.758L6.68204 40H1.04004ZM7.35804 31.55V26.454H26.91V31.55H7.35804Z" fill="#1F2A3C"/>
<path d="M48.3446 40.702C46.4899 40.702 44.7479 40.3554 43.1186 39.662C41.4893 38.9514 40.0766 37.946 38.8806 36.646C37.7019 35.346 36.8439 33.812 36.3066 32.044L41.5586 30.588C42.0613 32.2 42.9366 33.4394 44.1846 34.306C45.4326 35.1554 46.8193 35.5714 48.3446 35.554C49.7139 35.5367 50.9186 35.216 51.9586 34.592C52.9986 33.968 53.8133 33.1274 54.4026 32.07C54.9919 30.9954 55.2866 29.7647 55.2866 28.378C55.2866 26.298 54.6366 24.582 53.3366 23.23C52.0539 21.878 50.3726 21.202 48.2926 21.202C47.7033 21.202 47.0966 21.2887 46.4726 21.462C45.8659 21.6354 45.2939 21.8607 44.7566 22.138L42.2086 17.848L55.4166 6.17403L55.9886 7.73403H37.7886V2.56003H60.3046V7.73403L49.3326 18.29L49.2806 16.522C51.6379 16.522 53.6833 17.0507 55.4166 18.108C57.1499 19.148 58.4846 20.5694 59.4206 22.372C60.3739 24.1574 60.8506 26.1594 60.8506 28.378C60.8506 30.77 60.2873 32.8934 59.1606 34.748C58.0513 36.6027 56.5519 38.0587 54.6626 39.116C52.7906 40.1734 50.6846 40.702 48.3446 40.702Z" fill="#1F2A3C"/>
<path d="M79.6104 40.78C77.1664 40.78 74.9997 40.2947 73.1104 39.324C71.2384 38.336 69.7651 36.9667 68.6904 35.216C67.6331 33.4654 67.1044 31.4374 67.1044 29.132C67.1044 26.9827 67.6071 25.0154 68.6124 23.23C69.6177 21.4447 71.1171 20.0407 73.1104 19.018L73.0064 20.89C71.4118 19.902 70.1811 18.6714 69.3144 17.198C68.4651 15.7074 68.0404 14.0434 68.0404 12.206C68.0404 10.074 68.5344 8.22803 69.5224 6.66803C70.5104 5.10803 71.8711 3.90336 73.6044 3.05403C75.3551 2.2047 77.3571 1.78003 79.6104 1.78003C81.8637 1.78003 83.8571 2.2047 85.5904 3.05403C87.3237 3.90336 88.6844 5.10803 89.6724 6.66803C90.6604 8.22803 91.1544 10.074 91.1544 12.206C91.1544 14.0434 90.7471 15.6987 89.9324 17.172C89.1177 18.6454 87.8697 19.8847 86.1884 20.89L86.1104 19.07C88.0864 20.0407 89.5857 21.4274 90.6084 23.23C91.6311 25.0154 92.1424 26.9827 92.1424 29.132C92.1424 31.4374 91.6051 33.4654 90.5304 35.216C89.4558 36.9667 87.9737 38.336 86.0844 39.324C84.1951 40.2947 82.0371 40.78 79.6104 40.78ZM79.6104 35.606C81.6211 35.606 83.2504 35.06 84.4984 33.968C85.7464 32.8587 86.3704 31.2467 86.3704 29.132C86.3704 27.0174 85.7464 25.4054 84.4984 24.296C83.2677 23.1694 81.6384 22.606 79.6104 22.606C77.5824 22.606 75.9444 23.1694 74.6964 24.296C73.4657 25.4054 72.8504 27.0174 72.8504 29.132C72.8504 31.2467 73.4744 32.8587 74.7224 33.968C75.9704 35.06 77.5997 35.606 79.6104 35.606ZM79.6104 17.406C81.3264 17.406 82.7131 16.9814 83.7704 16.132C84.8451 15.2654 85.3824 13.9567 85.3824 12.206C85.3824 10.4554 84.8451 9.1467 83.7704 8.28003C82.7131 7.39603 81.3264 6.95403 79.6104 6.95403C77.8944 6.95403 76.4991 7.39603 75.4244 8.28003C74.3497 9.1467 73.8124 10.4554 73.8124 12.206C73.8124 13.9567 74.3497 15.2654 75.4244 16.132C76.4991 16.9814 77.8944 17.406 79.6104 17.406Z" fill="#1F2A3C"/>
<path d="M111.958 40.78C109.41 40.78 107.156 40.2254 105.198 39.116C103.239 37.9894 101.696 36.4467 100.57 34.488C99.4603 32.5294 98.9057 30.276 98.9057 27.728V14.832C98.9057 12.284 99.4603 10.0307 100.57 8.07203C101.696 6.11336 103.239 4.57936 105.198 3.47003C107.156 2.34336 109.41 1.78003 111.958 1.78003C114.506 1.78003 116.759 2.34336 118.718 3.47003C120.676 4.57936 122.21 6.11336 123.32 8.07203C124.446 10.0307 125.01 12.284 125.01 14.832V27.728C125.01 30.276 124.446 32.5294 123.32 34.488C122.21 36.4467 120.676 37.9894 118.718 39.116C116.759 40.2254 114.506 40.78 111.958 40.78ZM111.958 35.58C113.344 35.58 114.601 35.2507 115.728 34.592C116.872 33.916 117.782 33.0147 118.458 31.888C119.134 30.744 119.472 29.47 119.472 28.066V14.442C119.472 13.0554 119.134 11.7987 118.458 10.672C117.782 9.52803 116.872 8.6267 115.728 7.96803C114.601 7.29203 113.344 6.95403 111.958 6.95403C110.571 6.95403 109.306 7.29203 108.162 7.96803C107.035 8.6267 106.134 9.52803 105.458 10.672C104.782 11.7987 104.444 13.0554 104.444 14.442V28.066C104.444 29.47 104.782 30.744 105.458 31.888C106.134 33.0147 107.035 33.916 108.162 34.592C109.306 35.2507 110.571 35.58 111.958 35.58Z" fill="#1F2A3C"/>
<g filter="url(#filter0_ii_1567_642)">
<path d="M129.52 40.0001L142.286 21.0461L129.858 2.56006H136.514L145.64 16.4441L154.714 2.56006H161.396L148.968 21.0461L161.708 40.0001H155.052L145.64 25.6741L136.202 40.0001H129.52Z" fill="url(#paint0_linear_1567_642)"/>
</g>
<defs>
<filter id="filter0_ii_1567_642" x="128.52" y="1.56006" width="34.188" height="39.4399" filterUnits="userSpaceOnUse" color-interpolation-filters="sRGB">
<feFlood flood-opacity="0" result="BackgroundImageFix"/>
<feBlend mode="normal" in="SourceGraphic" in2="BackgroundImageFix" result="shape"/>
<feColorMatrix in="SourceAlpha" type="matrix" values="0 0 0 0 0 0 0 0 0 0 0 0 0 0 0 0 0 0 127 0" result="hardAlpha"/>
<feOffset dx="1" dy="1"/>
<feGaussianBlur stdDeviation="1"/>
<feComposite in2="hardAlpha" operator="arithmetic" k2="-1" k3="1"/>
<feColorMatrix type="matrix" values="0 0 0 0 0 0 0 0 0 0 0 0 0 0 0 0 0 0 0.07 0"/>
<feBlend mode="normal" in2="shape" result="effect1_innerShadow_1567_642"/>
<feColorMatrix in="SourceAlpha" type="matrix" values="0 0 0 0 0 0 0 0 0 0 0 0 0 0 0 0 0 0 127 0" result="hardAlpha"/>
<feOffset dx="-1" dy="-1"/>
<feGaussianBlur stdDeviation="1"/>
<feComposite in2="hardAlpha" operator="arithmetic" k2="-1" k3="1"/>
<feColorMatrix type="matrix" values="0 0 0 0 0 0 0 0 0 0 0 0 0 0 0 0 0 0 0.07 0"/>
<feBlend mode="normal" in2="effect1_innerShadow_1567_642" result="effect2_innerShadow_1567_642"/>
</filter>
<linearGradient id="paint0_linear_1567_642" x1="155.17" y1="20.0321" x2="145.41" y2="17.8042" gradientUnits="userSpaceOnUse">
<stop stop-color="#00E0FE"/>
<stop offset="1" stop-color="#02CCFF"/>
</linearGradient>
</defs>
</svg>
