<svg width="164" height="41" viewBox="0 0 164 41" fill="none" xmlns="http://www.w3.org/2000/svg">
<path d="M1.04 40H6.682L9.412 31.55H24.778L27.56 40H33.202L21.034 2.56H13.208L1.04 40ZM17.056 8.02L23.114 26.454H11.076L17.056 8.02ZM60.3046 7.734V2.56H37.7886V7.734H53.6486L42.2086 17.848L44.7566 22.138C45.8226 21.566 47.0966 21.202 48.2926 21.202C52.4526 21.202 55.2866 24.218 55.2866 28.378C55.2866 32.512 52.4526 35.502 48.3446 35.554C45.2766 35.58 42.5466 33.838 41.5586 30.588L36.3066 32.044C37.8926 37.374 42.7806 40.702 48.3446 40.702C55.3386 40.702 60.8506 35.528 60.8506 28.378C60.8506 22.294 57.1066 17.432 51.0486 16.626L60.3046 7.734ZM87.5664 19.928C89.9844 17.978 91.1544 15.326 91.1544 12.206C91.1544 5.81 86.3704 1.78 79.6104 1.78C72.8504 1.78 68.0404 5.81 68.0404 12.206C68.0404 15.3 69.3144 17.978 71.6284 19.928C68.6124 22.086 67.1044 25.414 67.1044 29.132C67.1044 36.022 72.2784 40.78 79.6104 40.78C86.9164 40.78 92.1424 36.022 92.1424 29.132C92.1424 25.414 90.5824 22.034 87.5664 19.928ZM79.6104 6.954C83.0424 6.954 85.3824 8.696 85.3824 12.206C85.3824 15.69 83.0424 17.406 79.6104 17.406C76.1784 17.406 73.8124 15.69 73.8124 12.206C73.8124 8.696 76.1784 6.954 79.6104 6.954ZM79.6104 35.606C75.5804 35.606 72.8504 33.37 72.8504 29.132C72.8504 24.894 75.5544 22.606 79.6104 22.606C83.6664 22.606 86.3704 24.894 86.3704 29.132C86.3704 33.37 83.6144 35.606 79.6104 35.606ZM111.958 40.78C119.576 40.78 125.01 35.346 125.01 27.728V14.832C125.01 7.214 119.576 1.78 111.958 1.78C104.34 1.78 98.9056 7.214 98.9056 14.832V27.728C98.9056 35.346 104.34 40.78 111.958 40.78ZM111.958 35.58C107.772 35.58 104.444 32.252 104.444 28.066V14.442C104.444 10.282 107.772 6.954 111.958 6.954C116.144 6.954 119.472 10.282 119.472 14.442V28.066C119.472 32.252 116.144 35.58 111.958 35.58Z" fill="#171F2C"/>
<path d="M129.52 40L142.286 21.046L129.858 2.56H136.514L145.64 16.444L154.714 2.56H161.396L148.968 21.046L161.708 40H155.052L145.64 25.674L136.202 40H129.52Z" fill="#171F2C"/>
</svg>
