<svg width="164" height="41" viewBox="0 0 164 41" fill="none" xmlns="http://www.w3.org/2000/svg">
<path d="M1.04004 40H6.68204L9.41204 31.55H24.778L27.56 40H33.202L21.034 2.56003H13.208L1.04004 40ZM11.076 26.454L17.056 7.99403L23.114 26.454H11.076Z" fill="#FAFAFA"/>
<path d="M48.3446 40.702C50.6846 40.702 52.7993 40.1734 54.6886 39.116C56.5779 38.0587 58.0773 36.6027 59.1866 34.748C60.2959 32.876 60.8506 30.7527 60.8506 28.378C60.8506 26.35 60.4519 24.4954 59.6546 22.814C58.8746 21.1327 57.7479 19.7547 56.2746 18.68C54.8186 17.588 53.0766 16.9034 51.0486 16.626L60.3046 7.73403V2.56003H37.7886V7.73403H53.6486L42.2086 17.848L44.7566 22.138C45.9179 21.514 47.0966 21.202 48.2926 21.202C50.3726 21.202 52.0539 21.878 53.3366 23.23C54.6366 24.582 55.2866 26.298 55.2866 28.378C55.2866 30.4407 54.6453 32.148 53.3626 33.5C52.0799 34.8347 50.4073 35.5194 48.3446 35.554C46.8193 35.5714 45.4326 35.1554 44.1846 34.306C42.9366 33.4567 42.0613 32.2174 41.5586 30.588L36.3066 32.044C36.8439 33.812 37.7019 35.346 38.8806 36.646C40.0766 37.946 41.4893 38.9514 43.1186 39.662C44.7479 40.3554 46.4899 40.702 48.3446 40.702Z" fill="#FAFAFA"/>
<path d="M79.6104 40.78C82.0544 40.78 84.2124 40.286 86.0844 39.298C87.9737 38.31 89.4558 36.9407 90.5304 35.19C91.6051 33.4394 92.1424 31.42 92.1424 29.132C92.1424 27.26 91.7524 25.5267 90.9724 23.932C90.2098 22.32 89.0744 20.9854 87.5664 19.928C89.9584 18.004 91.1544 15.43 91.1544 12.206C91.1544 10.074 90.6604 8.22803 89.6724 6.66803C88.6844 5.10803 87.3237 3.90336 85.5904 3.05403C83.8571 2.2047 81.8637 1.78003 79.6104 1.78003C77.3571 1.78003 75.3551 2.2047 73.6044 3.05403C71.8711 3.90336 70.5104 5.10803 69.5224 6.66803C68.5344 8.22803 68.0404 10.074 68.0404 12.206C68.0404 15.3607 69.2364 17.9347 71.6284 19.928C70.1204 21.0027 68.9851 22.3374 68.2224 23.932C67.4771 25.5267 67.1044 27.26 67.1044 29.132C67.1044 31.42 67.6331 33.4394 68.6904 35.19C69.7651 36.9407 71.2384 38.31 73.1104 39.298C74.9997 40.286 77.1664 40.78 79.6104 40.78ZM79.6104 17.406C77.8944 17.406 76.4991 16.9727 75.4244 16.106C74.3497 15.2394 73.8124 13.9394 73.8124 12.206C73.8124 10.4554 74.3497 9.1467 75.4244 8.28003C76.4991 7.39603 77.8944 6.95403 79.6104 6.95403C81.3264 6.95403 82.7131 7.39603 83.7704 8.28003C84.8451 9.1467 85.3824 10.4554 85.3824 12.206C85.3824 13.9394 84.8451 15.2394 83.7704 16.106C82.7131 16.9727 81.3264 17.406 79.6104 17.406ZM79.6104 35.606C77.5997 35.606 75.9704 35.06 74.7224 33.968C73.4744 32.8587 72.8504 31.2467 72.8504 29.132C72.8504 27.0174 73.4657 25.4054 74.6964 24.296C75.9444 23.1694 77.5824 22.606 79.6104 22.606C81.6384 22.606 83.2677 23.1694 84.4984 24.296C85.7464 25.4054 86.3704 27.0174 86.3704 29.132C86.3704 31.2467 85.7464 32.8587 84.4984 33.968C83.2504 35.06 81.6211 35.606 79.6104 35.606Z" fill="#FAFAFA"/>
<path d="M111.958 40.78C114.506 40.78 116.759 40.2254 118.718 39.116C120.676 37.9894 122.21 36.4467 123.32 34.488C124.446 32.512 125.01 30.2587 125.01 27.728V14.832C125.01 12.284 124.446 10.0307 123.32 8.07203C122.21 6.11336 120.676 4.57936 118.718 3.47003C116.759 2.34336 114.506 1.78003 111.958 1.78003C109.427 1.78003 107.174 2.34336 105.198 3.47003C103.239 4.57936 101.696 6.11336 100.57 8.07203C99.4603 10.0307 98.9057 12.284 98.9057 14.832V27.728C98.9057 30.2587 99.4603 32.512 100.57 34.488C101.696 36.4467 103.239 37.9894 105.198 39.116C107.174 40.2254 109.427 40.78 111.958 40.78ZM111.958 35.58C110.571 35.58 109.306 35.2507 108.162 34.592C107.018 33.916 106.108 33.006 105.432 31.862C104.773 30.718 104.444 29.4527 104.444 28.066V14.442C104.444 13.0554 104.773 11.7987 105.432 10.672C106.108 9.52803 107.018 8.6267 108.162 7.96803C109.306 7.29203 110.571 6.95403 111.958 6.95403C113.362 6.95403 114.627 7.29203 115.754 7.96803C116.898 8.6267 117.799 9.52803 118.458 10.672C119.134 11.7987 119.472 13.0554 119.472 14.442V28.066C119.472 29.4527 119.134 30.718 118.458 31.862C117.799 33.006 116.898 33.916 115.754 34.592C114.627 35.2507 113.362 35.58 111.958 35.58Z" fill="#FAFAFA"/>
<path d="M161.718 3.31006L150.266 20.6589L149.993 21.0727L150.267 21.4861L162.028 39.2501H155.151L147.157 26.7011L146.526 25.7114L145.893 26.6993L137.846 39.2501H130.919L142.729 21.4873L143.004 21.0735L142.73 20.6589L131.278 3.31006H138.157L145.892 15.4432L146.528 16.4418L147.159 15.4395L154.79 3.31006H161.718Z" stroke="url(#paint0_linear_1567_638)" stroke-width="1.5"/>
<defs>
<linearGradient id="paint0_linear_1567_638" x1="156.537" y1="20.0321" x2="146.313" y2="17.5736" gradientUnits="userSpaceOnUse">
<stop stop-color="#00E0FE"/>
<stop offset="1" stop-color="#02CCFF"/>
</linearGradient>
</defs>
</svg>
