<svg width="164" height="41" viewBox="0 0 164 41" fill="none" xmlns="http://www.w3.org/2000/svg">
<path d="M1.04 40L13.208 2.56H21.034L33.202 40H27.56L16.354 5.836H17.758L6.682 40H1.04ZM7.358 31.55V26.454H26.91V31.55H7.358ZM48.3446 40.702C46.4899 40.702 44.7479 40.3553 43.1186 39.662C41.4892 38.9513 40.0766 37.946 38.8806 36.646C37.7019 35.346 36.8439 33.812 36.3066 32.044L41.5586 30.588C42.0612 32.2 42.9366 33.4393 44.1846 34.306C45.4326 35.1553 46.8192 35.5713 48.3446 35.554C49.7139 35.5367 50.9186 35.216 51.9586 34.592C52.9986 33.968 53.8132 33.1273 54.4026 32.07C54.9919 30.9953 55.2866 29.7647 55.2866 28.378C55.2866 26.298 54.6366 24.582 53.3366 23.23C52.0539 21.878 50.3726 21.202 48.2926 21.202C47.7032 21.202 47.0966 21.2887 46.4726 21.462C45.8659 21.6353 45.2939 21.8607 44.7566 22.138L42.2086 17.848L55.4166 6.174L55.9886 7.734H37.7886V2.56H60.3046V7.734L49.3326 18.29L49.2806 16.522C51.6379 16.522 53.6832 17.0507 55.4166 18.108C57.1499 19.148 58.4846 20.5693 59.4206 22.372C60.3739 24.1573 60.8506 26.1593 60.8506 28.378C60.8506 30.77 60.2872 32.8933 59.1606 34.748C58.0512 36.6027 56.5519 38.0587 54.6626 39.116C52.7906 40.1733 50.6846 40.702 48.3446 40.702ZM79.6104 40.78C77.1664 40.78 74.9997 40.2947 73.1104 39.324C71.2384 38.336 69.765 36.9667 68.6904 35.216C67.633 33.4653 67.1044 31.4373 67.1044 29.132C67.1044 26.9827 67.607 25.0153 68.6124 23.23C69.6177 21.4447 71.117 20.0407 73.1104 19.018L73.0064 20.89C71.4117 19.902 70.181 18.6713 69.3144 17.198C68.465 15.7073 68.0404 14.0433 68.0404 12.206C68.0404 10.074 68.5344 8.228 69.5224 6.668C70.5104 5.108 71.871 3.90333 73.6044 3.054C75.355 2.20467 77.357 1.78 79.6104 1.78C81.8637 1.78 83.857 2.20467 85.5904 3.054C87.3237 3.90333 88.6844 5.108 89.6724 6.668C90.6604 8.228 91.1544 10.074 91.1544 12.206C91.1544 14.0433 90.747 15.6987 89.9324 17.172C89.1177 18.6453 87.8697 19.8847 86.1884 20.89L86.1104 19.07C88.0864 20.0407 89.5857 21.4273 90.6084 23.23C91.631 25.0153 92.1424 26.9827 92.1424 29.132C92.1424 31.4373 91.605 33.4653 90.5304 35.216C89.4557 36.9667 87.9737 38.336 86.0844 39.324C84.195 40.2947 82.037 40.78 79.6104 40.78ZM79.6104 35.606C81.621 35.606 83.2504 35.06 84.4984 33.968C85.7464 32.8587 86.3704 31.2467 86.3704 29.132C86.3704 27.0173 85.7464 25.4053 84.4984 24.296C83.2677 23.1693 81.6384 22.606 79.6104 22.606C77.5824 22.606 75.9444 23.1693 74.6964 24.296C73.4657 25.4053 72.8504 27.0173 72.8504 29.132C72.8504 31.2467 73.4744 32.8587 74.7224 33.968C75.9704 35.06 77.5997 35.606 79.6104 35.606ZM79.6104 17.406C81.3264 17.406 82.713 16.9813 83.7704 16.132C84.845 15.2653 85.3824 13.9567 85.3824 12.206C85.3824 10.4553 84.845 9.14667 83.7704 8.28C82.713 7.396 81.3264 6.954 79.6104 6.954C77.8944 6.954 76.499 7.396 75.4244 8.28C74.3497 9.14667 73.8124 10.4553 73.8124 12.206C73.8124 13.9567 74.3497 15.2653 75.4244 16.132C76.499 16.9813 77.8944 17.406 79.6104 17.406ZM111.958 40.78C109.41 40.78 107.156 40.2253 105.198 39.116C103.239 37.9893 101.696 36.4467 100.57 34.488C99.4603 32.5293 98.9056 30.276 98.9056 27.728V14.832C98.9056 12.284 99.4603 10.0307 100.57 8.072C101.696 6.11333 103.239 4.57933 105.198 3.47C107.156 2.34333 109.41 1.78 111.958 1.78C114.506 1.78 116.759 2.34333 118.718 3.47C120.676 4.57933 122.21 6.11333 123.32 8.072C124.446 10.0307 125.01 12.284 125.01 14.832V27.728C125.01 30.276 124.446 32.5293 123.32 34.488C122.21 36.4467 120.676 37.9893 118.718 39.116C116.759 40.2253 114.506 40.78 111.958 40.78ZM111.958 35.58C113.344 35.58 114.601 35.2507 115.728 34.592C116.872 33.916 117.782 33.0147 118.458 31.888C119.134 30.744 119.472 29.47 119.472 28.066V14.442C119.472 13.0553 119.134 11.7987 118.458 10.672C117.782 9.528 116.872 8.62667 115.728 7.968C114.601 7.292 113.344 6.954 111.958 6.954C110.571 6.954 109.306 7.292 108.162 7.968C107.035 8.62667 106.134 9.528 105.458 10.672C104.782 11.7987 104.444 13.0553 104.444 14.442V28.066C104.444 29.47 104.782 30.744 105.458 31.888C106.134 33.0147 107.035 33.916 108.162 34.592C109.306 35.2507 110.571 35.58 111.958 35.58Z" fill="#FAFAFA"/>
<path d="M129.52 40L142.286 21.046L129.858 2.56H136.514L145.64 16.444L154.714 2.56H161.396L148.968 21.046L161.708 40H155.052L145.64 25.674L136.202 40H129.52Z" fill="#FAFAFA"/>
</svg>
