<svg width="294" height="58" viewBox="0 0 294 58" fill="none" xmlns="http://www.w3.org/2000/svg">
    <path d="M48 0.681824H36.5618C34.3661 0.681824 32.3458 1.88115 31.2944 3.80872L15 33.6818C10.08 42.6818 4.3037 45.6818 0 45.6818H39L48 0.681824Z" fill="url(#paint0_linear_2265_839)"/>
    <path d="M125.33 45.6818V0.681824H130.358V18.1534H130.784C131.154 17.5852 131.665 16.8608 132.318 15.9801C132.986 15.0852 133.938 14.2898 135.174 13.5938C136.424 12.8835 138.114 12.5284 140.245 12.5284C143 12.5284 145.429 13.2173 147.532 14.5952C149.634 15.973 151.274 17.9261 152.453 20.4546C153.632 22.983 154.222 25.9659 154.222 29.4034C154.222 32.8693 153.632 35.8736 152.453 38.4162C151.274 40.9446 149.641 42.9048 147.553 44.2969C145.465 45.6747 143.057 46.3636 140.33 46.3636C138.228 46.3636 136.544 46.0156 135.28 45.3196C134.016 44.6094 133.043 43.8068 132.361 42.9119C131.679 42.0028 131.154 41.25 130.784 40.6534H130.188V45.6818H125.33ZM130.273 29.3182C130.273 31.7898 130.635 33.9702 131.36 35.8594C132.084 37.7344 133.142 39.2045 134.534 40.2699C135.926 41.321 137.631 41.8466 139.648 41.8466C141.75 41.8466 143.505 41.2926 144.911 40.1847C146.331 39.0625 147.397 37.5568 148.107 35.6676C148.831 33.7642 149.193 31.6477 149.193 29.3182C149.193 27.0171 148.838 24.9432 148.128 23.0966C147.432 21.2358 146.374 19.7656 144.953 18.6861C143.547 17.5923 141.779 17.0455 139.648 17.0455C137.603 17.0455 135.884 17.5639 134.492 18.6009C133.1 19.6236 132.049 21.0582 131.338 22.9048C130.628 24.7372 130.273 26.875 130.273 29.3182Z" fill="#ffffff"/>
    <path d="M161.58 57.9546C160.728 57.9546 159.968 57.8835 159.301 57.7415C158.633 57.6136 158.171 57.4858 157.916 57.358L159.194 52.9261C160.416 53.2386 161.495 53.3523 162.433 53.2671C163.37 53.1818 164.201 52.7628 164.926 52.0099C165.664 51.2713 166.339 50.071 166.95 48.4091L167.887 45.8523L155.785 12.9545H161.239L170.274 39.0341H170.614L179.649 12.9545H185.103L171.211 50.4546C170.586 52.1449 169.812 53.544 168.889 54.652C167.965 55.7742 166.893 56.6051 165.671 57.1449C164.464 57.6847 163.1 57.9546 161.58 57.9546Z" fill="#ffffff"/>
    <path d="M196.755 45.6818L186.783 12.9545H192.067L199.141 38.0114H199.482L206.471 12.9545H211.84L218.744 37.9261H219.085L226.158 12.9545H231.442L221.471 45.6818H216.528L209.369 20.5398H208.857L201.698 45.6818H196.755Z" fill="#ffffff"/>
    <path d="M235.69 45.6818V12.9545H240.719V45.6818H235.69ZM238.247 7.50001C237.267 7.50001 236.422 7.1662 235.712 6.49858C235.015 5.83097 234.667 5.02842 234.667 4.09092C234.667 3.15342 235.015 2.35086 235.712 1.68324C236.422 1.01563 237.267 0.681824 238.247 0.681824C239.227 0.681824 240.065 1.01563 240.761 1.68324C241.471 2.35086 241.827 3.15342 241.827 4.09092C241.827 5.02842 241.471 5.83097 240.761 6.49858C240.065 7.1662 239.227 7.50001 238.247 7.50001Z" fill="#ffffff"/>
    <path d="M247.528 45.6818V12.9545H252.386V17.8977H252.727C253.324 16.2784 254.403 14.9645 255.966 13.956C257.528 12.9474 259.29 12.4432 261.25 12.4432C261.619 12.4432 262.081 12.4503 262.635 12.4645C263.189 12.4787 263.608 12.5 263.892 12.5284V17.6421C263.722 17.5994 263.331 17.5355 262.72 17.4503C262.124 17.3509 261.492 17.3011 260.824 17.3011C259.233 17.3011 257.813 17.6349 256.563 18.3026C255.327 18.956 254.347 19.8651 253.622 21.0298C252.912 22.1804 252.557 23.4943 252.557 24.9716V45.6818H247.528Z" fill="#ffffff"/>
    <path d="M280.178 46.3636C277.025 46.3636 274.305 45.6676 272.018 44.2756C269.745 42.8693 267.991 40.9091 266.755 38.3949C265.533 35.8665 264.923 32.9261 264.923 29.5739C264.923 26.2216 265.533 23.267 266.755 20.7102C267.991 18.1392 269.709 16.1364 271.911 14.7017C274.127 13.2528 276.712 12.5284 279.667 12.5284C281.371 12.5284 283.055 12.8125 284.717 13.3807C286.378 13.9489 287.891 14.8722 289.255 16.1506C290.619 17.4148 291.705 19.0909 292.515 21.179C293.324 23.267 293.729 25.8381 293.729 28.8921V31.0227H268.502V26.6761H288.616C288.616 24.8295 288.246 23.1818 287.508 21.733C286.783 20.2841 285.746 19.1406 284.397 18.3026C283.062 17.4645 281.485 17.0455 279.667 17.0455C277.664 17.0455 275.931 17.5426 274.468 18.5369C273.019 19.5171 271.904 20.7955 271.123 22.3722C270.342 23.9489 269.951 25.6392 269.951 27.4432V30.3409C269.951 32.8125 270.377 34.9077 271.229 36.6264C272.096 38.331 273.296 39.6307 274.83 40.5256C276.364 41.4063 278.147 41.8466 280.178 41.8466C281.499 41.8466 282.692 41.6619 283.758 41.2926C284.837 40.9091 285.768 40.3409 286.549 39.5881C287.33 38.821 287.934 37.8693 288.36 36.733L293.218 38.0966C292.707 39.7443 291.847 41.1932 290.64 42.4432C289.432 43.679 287.941 44.6449 286.165 45.3409C284.39 46.0227 282.394 46.3636 280.178 46.3636Z" fill="#ffffff"/>
    <path d="M77.164 12.9545V17.2159H59.522V12.9545H77.164ZM64.8061 45.6818V8.4375C64.8061 6.5625 65.2464 5 66.1271 3.75C67.0078 2.5 68.1512 1.5625 69.5575 0.9375C70.9637 0.3125 72.4481 0 74.0106 0C75.2464 0 76.2549 0.099432 77.0362 0.298297C77.8174 0.497159 78.3998 0.681818 78.7833 0.852273L77.3345 5.19886C77.0788 5.11364 76.7237 5.0071 76.2691 4.87926C75.8288 4.75142 75.2464 4.6875 74.522 4.6875C72.86 4.6875 71.6598 5.10653 70.9211 5.9446C70.1967 6.78267 69.8345 8.01137 69.8345 9.63068V45.6818H64.8061Z" fill="url(#paint1_linear_2265_839)"/>
    <path d="M86.8397 0.681824V45.6818H81.8112V0.681824H86.8397Z" fill="url(#paint2_linear_2265_839)"/>
    <path d="M96.8882 57.9545C96.0359 57.9545 95.276 57.8835 94.6083 57.7415C93.9407 57.6136 93.4791 57.4858 93.2234 57.358L94.5018 52.9261C95.7234 53.2386 96.8029 53.3523 97.7404 53.267C98.6779 53.1818 99.5089 52.7628 100.233 52.0099C100.972 51.2713 101.647 50.071 102.257 48.4091L103.195 45.8523L91.0927 12.9545H96.5473L105.581 39.0341H105.922L114.956 12.9545H120.411L106.519 50.4545C105.894 52.1449 105.12 53.544 104.196 54.652C103.273 55.7741 102.201 56.6051 100.979 57.1449C99.7717 57.6847 98.4081 57.9545 96.8882 57.9545Z" fill="url(#paint3_linear_2265_839)"/>
    <defs>
        <linearGradient id="paint0_linear_2265_839" x1="38.25" y1="21.6818" x2="24.075" y2="17.667" gradientUnits="userSpaceOnUse">
            <stop stop-color="#00E0FE"/>
            <stop offset="1" stop-color="#02CCFF"/>
        </linearGradient>
        <linearGradient id="paint1_linear_2265_839" x1="59.522" y1="29.8052" x2="119.541" y2="29.8052" gradientUnits="userSpaceOnUse">
            <stop stop-color="#00C4F5"/>
            <stop offset="1" stop-color="#00E0FE"/>
        </linearGradient>
        <linearGradient id="paint2_linear_2265_839" x1="59.522" y1="29.8052" x2="119.541" y2="29.8052" gradientUnits="userSpaceOnUse">
            <stop stop-color="#00C4F5"/>
            <stop offset="1" stop-color="#00E0FE"/>
        </linearGradient>
        <linearGradient id="paint3_linear_2265_839" x1="59.522" y1="29.8052" x2="119.541" y2="29.8052" gradientUnits="userSpaceOnUse">
            <stop stop-color="#00C4F5"/>
            <stop offset="1" stop-color="#00E0FE"/>
        </linearGradient>
    </defs>
</svg>
